<svg width="842" height="842" viewBox="0 0 842 842" fill="none" xmlns="http://www.w3.org/2000/svg">
<path d="M842 421C842 653.512 653.512 842 421 842C188.488 842 0 653.512 0 421C0 188.488 188.488 0 421 0C653.512 0 842 188.488 842 421Z" fill="black"/>
<path d="M367.945 140.372L94 324L368.02 173.264C368.319 173.099 368.681 173.099 368.981 173.262L643.5 323L369.056 140.37C368.719 140.146 368.281 140.147 367.945 140.372Z" fill="white"/>
<path d="M748.327 319.897L473.67 118.435C473.317 118.176 472.837 118.177 472.485 118.437L436.097 145.322C435.554 145.724 435.557 146.538 436.104 146.935L457.983 162.843C458.308 163.079 458.745 163.098 459.089 162.889L472.56 154.721C472.878 154.528 473.276 154.527 473.594 154.719L748.327 319.897Z" fill="white"/>
<path d="M422.528 536.536C410.368 536.536 400.896 533.464 394.112 527.32C387.328 521.048 383.936 511.768 383.936 499.48V411.856C383.936 410.199 385.279 408.856 386.936 408.856H410.888C412.545 408.856 413.888 410.199 413.888 411.856V499.096C413.888 503.448 415.04 506.84 417.344 509.272C419.648 511.576 422.784 512.728 426.752 512.728C429.959 512.728 432.844 512.141 435.406 510.967C437.232 510.13 439.569 510.776 440.286 512.653L446.082 527.835C446.571 529.114 446.138 530.575 444.959 531.271C442.305 532.839 439.243 534.082 435.776 535C431.552 536.024 427.136 536.536 422.528 536.536ZM371 457.048C369.343 457.048 368 455.705 368 454.048V437.008C368 435.351 369.343 434.008 371 434.008H403.808H436.616C438.273 434.008 439.616 435.351 439.616 437.008V454.048C439.616 455.705 438.273 457.048 436.616 457.048H371Z" fill="white"/>
<path d="M503.716 536.536C491.556 536.536 482.083 533.464 475.299 527.32C468.515 521.048 465.124 511.768 465.124 499.48V411.856C465.124 410.199 466.467 408.856 468.124 408.856H492.076C493.732 408.856 495.076 410.199 495.076 411.856V499.096C495.076 503.448 496.227 506.84 498.531 509.272C500.835 511.576 503.972 512.728 507.94 512.728C511.147 512.728 514.031 512.141 516.593 510.967C518.419 510.13 520.756 510.776 521.473 512.653L527.27 527.835C527.758 529.114 527.326 530.575 526.147 531.271C523.492 532.839 520.431 534.082 516.964 535C512.739 536.024 508.324 536.536 503.716 536.536ZM452.188 457.048C450.531 457.048 449.188 455.705 449.188 454.048V437.008C449.188 435.351 450.531 434.008 452.188 434.008H517.803C519.46 434.008 520.803 435.351 520.803 437.008V454.048C520.803 455.705 519.46 457.048 517.803 457.048H452.188Z" fill="white"/>
<path d="M538 436C538 434.343 539.343 433 541 433H564C565.657 433 567 434.343 567 436V534C567 535.657 565.657 537 564 537H541C539.343 537 538 535.657 538 534V436Z" fill="white"/>
<path d="M540 394C540 392.343 541.343 391 543 391H562C563.657 391 565 392.343 565 394V413C565 414.657 563.657 416 562 416H543C541.343 416 540 414.657 540 413V394Z" fill="white"/>
<path d="M274 399C274 397.895 274.895 397 276 397H357C358.657 397 360 398.343 360 400V418C360 419.657 358.657 421 357 421H303.97C302.877 421 301.987 421.877 301.971 422.97L301.53 452.47C301.514 453.586 302.414 454.5 303.53 454.5H349.5C351.157 454.5 352.5 455.843 352.5 457.5V476C352.5 477.657 351.157 479 349.5 479H303.5C302.395 479 301.5 479.895 301.5 481V510.016C301.5 511.115 302.385 512.007 303.483 512.016L359.025 512.475C360.672 512.489 362 513.828 362 515.475V532C362 533.657 360.657 535 359 535H276C274.895 535 274 534.105 274 533V399Z" fill="white"/>
<path d="M407 353C407 352.448 407.448 352 408 352H432C432.552 352 433 352.448 433 353V357C433 357.552 432.552 358 432 358H408C407.448 358 407 357.552 407 357V353Z" fill="white"/>
<path d="M408 361C408 360.448 408.448 360 409 360H431C431.552 360 432 360.448 432 361V365C432 365.552 431.552 366 431 366H409C408.448 366 408 365.552 408 365V361Z" fill="white"/>
<path d="M409.087 368.995C408.992 368.451 409.448 368 410 368H430C430.552 368 431.009 368.452 430.899 368.993C429.983 373.519 423.041 377 419.45 377C415.859 377 409.876 373.52 409.087 368.995Z" fill="white"/>
<path d="M405 346.5C405 348.709 406.791 350.5 409 350.5H431C433.209 350.5 435 348.709 435 346.5V338.422C435 337.502 435.317 336.61 435.898 335.897L444.36 325.5C448.516 320.288 451 313.684 451 306.5C451 289.655 437.345 276 420.5 276C403.655 276 390 289.655 390 306.5C390 313.684 392.484 320.288 396.64 325.5L404.235 335.948C404.732 336.632 405 337.455 405 338.3V346.5Z" fill="white"/>
<path d="M220.32 585.814C222.053 585.814 223.573 586.182 224.88 586.918C226.213 587.654 227.253 588.773 228 590.275C228.747 591.777 229.12 593.676 229.12 595.973V608.446C229.12 608.998 228.672 609.446 228.12 609.446H226.28C225.728 609.446 225.28 608.998 225.28 608.446V596.459C225.28 594.192 224.773 592.484 223.76 591.335C222.773 590.187 221.373 589.612 219.56 589.612C218.2 589.612 217.013 589.907 216 590.496C214.987 591.085 214.2 591.954 213.64 593.102C213.107 594.251 212.84 595.679 212.84 597.387V608.446C212.84 608.998 212.392 609.446 211.84 609.446H210C209.448 609.446 209 608.998 209 608.446V587.035C209 586.482 209.448 586.035 210 586.035H211.747C212.262 586.035 212.68 586.452 212.68 586.968V590.685C212.68 591.009 212.228 591.088 212.119 590.783C212.094 590.712 212.097 590.634 212.129 590.567C212.823 589.086 213.873 587.929 215.28 587.095C216.72 586.241 218.4 585.814 220.32 585.814Z" fill="white"/>
<path d="M247.107 618.28C245.16 618.28 243.267 617.971 241.427 617.352C239.901 616.857 238.612 616.174 237.558 615.304C237.209 615.015 237.141 614.516 237.364 614.121L238.195 612.643C238.515 612.075 239.287 611.962 239.816 612.343C240.592 612.903 241.476 613.365 242.467 613.73C243.907 614.29 245.413 614.57 246.987 614.57C249.493 614.57 251.333 613.922 252.507 612.626C253.68 611.33 254.267 609.357 254.267 606.707V601.76L254.667 597.122L254.467 592.439V587.035C254.467 586.482 254.914 586.035 255.467 586.035H257.107C257.659 586.035 258.107 586.482 258.107 587.035V606.265C258.107 610.388 257.173 613.421 255.307 615.365C253.44 617.308 250.707 618.28 247.107 618.28ZM246.627 608.474C244.573 608.474 242.733 608.003 241.107 607.06C239.507 606.089 238.227 604.749 237.267 603.041C236.333 601.333 235.867 599.36 235.867 597.122C235.867 594.854 236.333 592.881 237.267 591.203C238.227 589.495 239.507 588.17 241.107 587.227C242.733 586.285 244.573 585.814 246.627 585.814C248.44 585.814 250.093 586.226 251.587 587.051C253.08 587.846 254.267 589.082 255.147 590.761C256.053 592.44 256.507 594.56 256.507 597.122C256.507 599.654 256.053 601.76 255.147 603.438C254.267 605.117 253.08 606.383 251.587 607.237C250.093 608.062 248.44 608.474 246.627 608.474ZM247.067 604.763C248.48 604.763 249.733 604.439 250.827 603.792C251.92 603.144 252.773 602.246 253.387 601.097C254.027 599.949 254.347 598.624 254.347 597.122C254.347 595.62 254.027 594.295 253.387 593.146C252.773 591.998 251.92 591.114 250.827 590.496C249.733 589.848 248.48 589.524 247.067 589.524C245.653 589.524 244.387 589.848 243.267 590.496C242.173 591.114 241.307 591.998 240.667 593.146C240.053 594.295 239.747 595.62 239.747 597.122C239.747 598.624 240.053 599.949 240.667 601.097C241.307 602.246 242.173 603.144 243.267 603.792C244.387 604.439 245.653 604.763 247.067 604.763Z" fill="white"/>
<path d="M276.484 609.711C274.217 609.711 272.217 609.195 270.484 608.165C268.777 607.134 267.444 605.72 266.484 603.924C265.55 602.128 265.084 600.066 265.084 597.74C265.084 595.414 265.537 593.352 266.444 591.556C267.377 589.76 268.644 588.361 270.244 587.36C271.87 586.329 273.697 585.814 275.724 585.814C277.777 585.814 279.59 586.314 281.164 587.316C282.737 588.317 283.964 589.73 284.844 591.556C285.75 593.352 286.204 595.458 286.204 597.873C286.204 598.049 286.19 598.255 286.164 598.491C286.164 598.871 285.839 599.154 285.46 599.154H269.084C268.532 599.154 268.084 598.706 268.084 598.154V597.106C268.084 596.553 268.532 596.106 269.084 596.106H282.94C283.299 596.106 283.442 596.569 283.145 596.771C282.901 596.937 282.568 596.758 282.553 596.463C282.494 595.243 282.217 594.137 281.724 593.146C281.137 591.968 280.324 591.055 279.284 590.408C278.27 589.73 277.084 589.392 275.724 589.392C274.39 589.392 273.204 589.73 272.164 590.408C271.124 591.055 270.31 591.983 269.724 593.19C269.137 594.368 268.844 595.723 268.844 597.254V597.961C268.844 599.522 269.164 600.92 269.804 602.157C270.47 603.365 271.39 604.307 272.564 604.984C273.737 605.662 275.084 606 276.604 606C277.857 606 278.99 605.765 280.004 605.293C280.678 604.988 281.296 604.583 281.859 604.08C282.337 603.651 283.099 603.657 283.492 604.165L284.369 605.299C284.649 605.66 284.652 606.168 284.345 606.505C283.478 607.454 282.444 608.199 281.244 608.739C279.83 609.387 278.244 609.711 276.484 609.711Z" fill="white"/>
<path d="M304.456 585.814C306.189 585.814 307.709 586.182 309.016 586.918C310.349 587.654 311.389 588.773 312.136 590.275C312.883 591.777 313.256 593.676 313.256 595.973V608.446C313.256 608.998 312.808 609.446 312.256 609.446H310.416C309.864 609.446 309.416 608.998 309.416 608.446V596.459C309.416 594.192 308.909 592.484 307.896 591.335C306.909 590.187 305.509 589.612 303.696 589.612C302.336 589.612 301.149 589.907 300.136 590.496C299.123 591.085 298.336 591.954 297.776 593.102C297.243 594.251 296.976 595.679 296.976 597.387V608.446C296.976 608.998 296.528 609.446 295.976 609.446H294.136C293.584 609.446 293.136 608.998 293.136 608.446V587.035C293.136 586.482 293.584 586.035 294.136 586.035H295.883C296.398 586.035 296.816 586.452 296.816 586.968V590.685C296.816 591.009 296.364 591.088 296.255 590.783C296.23 590.712 296.233 590.634 296.265 590.567C296.959 589.086 298.009 587.929 299.416 587.095C300.856 586.241 302.536 585.814 304.456 585.814Z" fill="white"/>
<path d="M333.283 585.814C335.016 585.814 336.536 586.182 337.843 586.918C339.176 587.654 340.216 588.773 340.963 590.275C341.709 591.777 342.083 593.676 342.083 595.973V608.446C342.083 608.998 341.635 609.446 341.083 609.446H339.243C338.69 609.446 338.243 608.998 338.243 608.446V596.459C338.243 594.192 337.736 592.484 336.723 591.335C335.736 590.187 334.336 589.612 332.523 589.612C331.163 589.612 329.976 589.907 328.963 590.496C327.949 591.085 327.163 591.954 326.603 593.102C326.069 594.251 325.803 595.679 325.803 597.387V608.446C325.803 608.998 325.355 609.446 324.803 609.446H322.963C322.41 609.446 321.963 608.998 321.963 608.446V577.67C321.963 577.118 322.41 576.67 322.963 576.67H324.803C325.355 576.67 325.803 577.118 325.803 577.67V590.673C325.803 591.063 325.271 591.177 325.11 590.822C325.067 590.727 325.067 590.618 325.112 590.524C325.806 589.064 326.85 587.921 328.243 587.095C329.683 586.241 331.363 585.814 333.283 585.814Z" fill="white"/>
<path d="M364.949 609.446C364.397 609.446 363.949 608.998 363.949 608.446V604.605C363.949 604.534 363.942 604.463 363.927 604.394L363.772 603.675C363.757 603.606 363.749 603.535 363.749 603.464V595.134C363.749 593.338 363.269 591.954 362.309 590.982C361.376 589.981 359.962 589.48 358.069 589.48C356.816 589.48 355.589 589.716 354.389 590.187C353.655 590.457 352.99 590.788 352.395 591.18C351.84 591.546 351.051 591.405 350.752 590.81L350.094 589.504C349.891 589.099 349.982 588.604 350.342 588.329C351.306 587.595 352.415 587.022 353.669 586.609C355.216 586.079 356.829 585.814 358.509 585.814C361.416 585.814 363.656 586.594 365.229 588.155C366.802 589.716 367.589 592.101 367.589 595.311V608.446C367.589 608.998 367.141 609.446 366.589 609.446H364.949ZM356.989 609.711C355.416 609.711 354.029 609.416 352.829 608.827C351.656 608.238 350.749 607.428 350.109 606.398C349.469 605.338 349.149 604.145 349.149 602.82C349.149 601.554 349.416 600.405 349.949 599.374C350.509 598.344 351.402 597.519 352.629 596.901C353.882 596.282 355.562 595.973 357.669 595.973H363.389C363.941 595.973 364.389 596.421 364.389 596.973V598.021C364.389 598.573 363.941 599.021 363.389 599.021H357.829C355.909 599.021 354.616 599.374 353.949 600.081C353.282 600.788 352.949 601.642 352.949 602.643C352.949 603.792 353.362 604.719 354.189 605.426C355.016 606.103 356.162 606.442 357.629 606.442C359.069 606.442 360.322 606.089 361.389 605.382C362.482 604.675 363.269 603.644 363.749 602.29L364.43 604.903C364.482 605.1 364.474 605.308 364.395 605.496C363.873 606.745 363.018 607.752 361.829 608.518C360.549 609.313 358.936 609.711 356.989 609.711Z" fill="white"/>
<path d="M377.295 609.446C376.743 609.446 376.295 608.998 376.295 608.446V587.035C376.295 586.482 376.743 586.035 377.295 586.035H379.336C379.689 586.035 379.975 586.321 379.975 586.674V590.817C379.975 591.027 379.673 591.061 379.627 590.856C379.619 590.823 379.621 590.788 379.633 590.756C380.222 589.161 381.203 587.94 382.575 587.095C383.728 586.385 385.101 585.97 386.696 585.85C387.247 585.809 387.695 586.261 387.695 586.814V589.439C387.695 589.69 387.467 589.878 387.215 589.878C387.082 589.878 386.949 589.878 386.815 589.878C384.762 589.878 383.135 590.555 381.935 591.909C380.735 593.264 380.135 595.222 380.135 597.784V608.446C380.135 608.998 379.688 609.446 379.135 609.446H377.295Z" fill="white"/>
<path d="M395.028 609.446C394.476 609.446 394.028 608.998 394.028 608.446V587.035C394.028 586.482 394.476 586.035 395.028 586.035H396.868C397.42 586.035 397.868 586.482 397.868 587.035V608.446C397.868 608.998 397.42 609.446 396.868 609.446H395.028ZM395.948 581.529C395.202 581.529 394.575 581.264 394.068 580.734C393.588 580.204 393.348 579.556 393.348 578.79C393.348 577.995 393.588 577.333 394.068 576.803C394.575 576.273 395.202 576.008 395.948 576.008C396.695 576.008 397.308 576.273 397.788 576.803C398.295 577.303 398.548 577.936 398.548 578.702C398.548 579.497 398.308 580.175 397.828 580.734C397.348 581.264 396.722 581.529 395.948 581.529Z" fill="white"/>
<path d="M420.96 609.446C420.408 609.446 419.96 608.998 419.96 608.446V604.605C419.96 604.534 419.953 604.463 419.938 604.394L419.783 603.675C419.768 603.606 419.76 603.535 419.76 603.464V595.134C419.76 593.338 419.28 591.954 418.32 590.982C417.387 589.981 415.973 589.48 414.08 589.48C412.827 589.48 411.6 589.716 410.4 590.187C409.666 590.457 409.001 590.788 408.406 591.18C407.851 591.546 407.062 591.405 406.763 590.81L406.105 589.504C405.902 589.099 405.993 588.604 406.353 588.329C407.317 587.595 408.426 587.022 409.68 586.609C411.227 586.079 412.84 585.814 414.52 585.814C417.427 585.814 419.667 586.594 421.24 588.155C422.813 589.716 423.6 592.101 423.6 595.311V608.446C423.6 608.998 423.152 609.446 422.6 609.446H420.96ZM413 609.711C411.427 609.711 410.04 609.416 408.84 608.827C407.667 608.238 406.76 607.428 406.12 606.398C405.48 605.338 405.16 604.145 405.16 602.82C405.16 601.554 405.427 600.405 405.96 599.374C406.52 598.344 407.413 597.519 408.64 596.901C409.893 596.282 411.573 595.973 413.68 595.973H419.4C419.952 595.973 420.4 596.421 420.4 596.973V598.021C420.4 598.573 419.952 599.021 419.4 599.021H413.84C411.92 599.021 410.627 599.374 409.96 600.081C409.293 600.788 408.96 601.642 408.96 602.643C408.96 603.792 409.373 604.719 410.2 605.426C411.027 606.103 412.173 606.442 413.64 606.442C415.08 606.442 416.333 606.089 417.4 605.382C418.493 604.675 419.28 603.644 419.76 602.29L420.441 604.903C420.493 605.1 420.485 605.308 420.406 605.496C419.884 606.745 419.029 607.752 417.84 608.518C416.56 609.313 414.947 609.711 413 609.711Z" fill="white"/>
<path d="M514 609.446C513.448 609.446 513 608.998 513 608.446V587.035C513 586.482 513.448 586.035 514 586.035H516.041C516.394 586.035 516.68 586.321 516.68 586.674V590.817C516.68 591.027 516.378 591.061 516.331 590.856C516.324 590.823 516.326 590.788 516.338 590.756C516.927 589.161 517.907 587.94 519.28 587.095C520.433 586.385 521.806 585.97 523.401 585.85C523.951 585.809 524.4 586.261 524.4 586.814V589.439C524.4 589.69 524.171 589.878 523.92 589.878C523.787 589.878 523.653 589.878 523.52 589.878C521.467 589.878 519.84 590.555 518.64 591.909C517.44 593.264 516.84 595.222 516.84 597.784V608.446C516.84 608.998 516.392 609.446 515.84 609.446H514Z" fill="white"/>
<path d="M540.018 609.711C537.884 609.711 535.991 609.195 534.338 608.165C532.684 607.134 531.378 605.72 530.418 603.924C529.458 602.098 528.978 600.037 528.978 597.74C528.978 595.414 529.458 593.352 530.418 591.556C531.378 589.76 532.684 588.361 534.338 587.36C535.991 586.329 537.884 585.814 540.018 585.814C542.124 585.814 544.004 586.329 545.658 587.36C547.338 588.361 548.644 589.76 549.578 591.556C550.538 593.323 551.018 595.384 551.018 597.74C551.018 600.066 550.538 602.128 549.578 603.924C548.644 605.72 547.338 607.134 545.658 608.165C544.004 609.195 542.124 609.711 540.018 609.711ZM540.018 606C541.378 606 542.591 605.662 543.658 604.984C544.751 604.307 545.604 603.35 546.218 602.113C546.831 600.847 547.138 599.389 547.138 597.74C547.138 596.062 546.831 594.619 546.218 593.411C545.604 592.174 544.751 591.217 543.658 590.54C542.591 589.863 541.378 589.524 540.018 589.524C538.658 589.524 537.444 589.863 536.378 590.54C535.311 591.217 534.458 592.174 533.818 593.411C533.178 594.619 532.858 596.062 532.858 597.74C532.858 599.389 533.178 600.847 533.818 602.113C534.458 603.35 535.311 604.307 536.378 604.984C537.444 605.662 538.658 606 540.018 606Z" fill="white"/>
<path d="M555.608 618.28C554.728 618.28 553.888 618.162 553.088 617.927C552.525 617.766 552.023 617.551 551.583 617.281C551.221 617.058 551.109 616.6 551.26 616.203L551.724 614.98C551.975 614.318 552.836 614.118 553.495 614.376C554.049 614.593 554.673 614.702 555.368 614.702C556.381 614.702 557.155 614.349 557.688 613.642C558.248 612.965 558.528 611.949 558.528 610.594V587.035C558.528 586.482 558.976 586.035 559.528 586.035H561.368C561.92 586.035 562.368 586.482 562.368 587.035V610.506C562.368 612.891 561.781 614.776 560.608 616.16C559.461 617.573 557.795 618.28 555.608 618.28ZM560.448 581.529C559.702 581.529 559.075 581.264 558.568 580.734C558.088 580.204 557.848 579.556 557.848 578.79C557.848 577.995 558.088 577.333 558.568 576.803C559.075 576.273 559.702 576.008 560.448 576.008C561.195 576.008 561.808 576.273 562.288 576.803C562.795 577.303 563.048 577.936 563.048 578.702C563.048 579.497 562.808 580.175 562.328 580.734C561.848 581.264 561.222 581.529 560.448 581.529Z" fill="white"/>
<path d="M581.135 609.711C578.869 609.711 576.869 609.195 575.135 608.165C573.429 607.134 572.095 605.72 571.135 603.924C570.202 602.128 569.735 600.066 569.735 597.74C569.735 595.414 570.189 593.352 571.095 591.556C572.029 589.76 573.295 588.361 574.895 587.36C576.522 586.329 578.349 585.814 580.375 585.814C582.429 585.814 584.242 586.314 585.815 587.316C587.389 588.317 588.615 589.73 589.495 591.556C590.402 593.352 590.855 595.458 590.855 597.873C590.855 598.049 590.842 598.255 590.815 598.491C590.815 598.871 590.491 599.154 590.111 599.154H573.735C573.183 599.154 572.735 598.706 572.735 598.154V597.106C572.735 596.553 573.183 596.106 573.735 596.106H587.592C587.95 596.106 588.093 596.569 587.797 596.771C587.552 596.937 587.219 596.758 587.205 596.463C587.146 595.243 586.869 594.137 586.375 593.146C585.789 591.968 584.975 591.055 583.935 590.408C582.922 589.73 581.735 589.392 580.375 589.392C579.042 589.392 577.855 589.73 576.815 590.408C575.775 591.055 574.962 591.983 574.375 593.19C573.789 594.368 573.495 595.723 573.495 597.254V597.961C573.495 599.522 573.815 600.92 574.455 602.157C575.122 603.365 576.042 604.307 577.215 604.984C578.389 605.662 579.735 606 581.255 606C582.509 606 583.642 605.765 584.655 605.293C585.33 604.988 585.948 604.583 586.51 604.08C586.989 603.651 587.75 603.657 588.143 604.165L589.021 605.299C589.3 605.66 589.304 606.168 588.996 606.505C588.129 607.454 587.096 608.199 585.895 608.739C584.482 609.387 582.895 609.711 581.135 609.711Z" fill="white"/>
<path d="M605.468 609.711C603.334 609.711 601.681 609.078 600.508 607.811C599.334 606.545 598.748 604.734 598.748 602.378V581.911C598.748 581.358 599.195 580.911 599.748 580.911H601.588C602.14 580.911 602.588 581.358 602.588 581.911V602.201C602.588 603.468 602.868 604.439 603.428 605.117C604.014 605.794 604.841 606.133 605.908 606.133C606.559 606.133 607.151 606.024 607.684 605.808C608.335 605.543 609.185 605.732 609.442 606.386L609.861 607.45C610.01 607.829 609.92 608.267 609.592 608.508C609.12 608.853 608.585 609.122 607.988 609.313C607.188 609.578 606.348 609.711 605.468 609.711ZM596.148 589.524C595.595 589.524 595.148 589.076 595.148 588.524V587.035C595.148 586.482 595.595 586.035 596.148 586.035H607.668C608.22 586.035 608.668 586.482 608.668 587.035V588.524C608.668 589.076 608.22 589.524 607.668 589.524H596.148Z" fill="white"/>
<path d="M625.127 609.711C622.994 609.711 621.1 609.195 619.447 608.165C617.794 607.134 616.487 605.72 615.527 603.924C614.567 602.098 614.087 600.037 614.087 597.74C614.087 595.414 614.567 593.352 615.527 591.556C616.487 589.76 617.794 588.361 619.447 587.36C621.1 586.329 622.994 585.814 625.127 585.814C627.234 585.814 629.114 586.329 630.767 587.36C632.447 588.361 633.754 589.76 634.687 591.556C635.647 593.323 636.127 595.384 636.127 597.74C636.127 600.066 635.647 602.128 634.687 603.924C633.754 605.72 632.447 607.134 630.767 608.165C629.114 609.195 627.234 609.711 625.127 609.711ZM625.127 606C626.487 606 627.7 605.662 628.767 604.984C629.86 604.307 630.714 603.35 631.327 602.113C631.94 600.847 632.247 599.389 632.247 597.74C632.247 596.062 631.94 594.619 631.327 593.411C630.714 592.174 629.86 591.217 628.767 590.54C627.7 589.863 626.487 589.524 625.127 589.524C623.767 589.524 622.554 589.863 621.487 590.54C620.42 591.217 619.567 592.174 618.927 593.411C618.287 594.619 617.967 596.062 617.967 597.74C617.967 599.389 618.287 600.847 618.927 602.113C619.567 603.35 620.42 604.307 621.487 604.984C622.554 605.662 623.767 606 625.127 606Z" fill="white"/>
<path d="M649.518 609.711C647.758 609.711 646.078 609.446 644.478 608.916C643.234 608.497 642.199 608.004 641.372 607.438C640.997 607.181 640.894 606.686 641.09 606.276L641.833 604.715C642.104 604.146 642.83 603.968 643.377 604.282C644.066 604.678 644.846 605.03 645.718 605.338C647.051 605.809 648.411 606.044 649.798 606.044C651.584 606.044 652.864 605.765 653.638 605.205C654.438 604.646 654.838 603.865 654.838 602.864C654.838 602.128 654.598 601.554 654.118 601.141C653.638 600.729 652.998 600.42 652.198 600.214C651.424 600.008 650.558 599.831 649.598 599.684C648.638 599.507 647.678 599.301 646.718 599.065C645.758 598.8 644.878 598.447 644.078 598.005C643.278 597.534 642.638 596.901 642.158 596.106C641.678 595.281 641.438 594.192 641.438 592.837C641.438 591.424 641.798 590.187 642.518 589.127C643.238 588.066 644.251 587.257 645.558 586.697C646.891 586.108 648.464 585.814 650.278 585.814C651.664 585.814 653.064 586.005 654.478 586.388C655.575 586.657 656.518 587.021 657.306 587.479C657.722 587.72 657.845 588.247 657.634 588.678L656.884 590.214C656.61 590.775 655.896 590.945 655.352 590.64C654.705 590.276 654.04 590.007 653.358 589.833C652.318 589.568 651.278 589.436 650.238 589.436C648.558 589.436 647.304 589.745 646.478 590.363C645.651 590.952 645.238 591.718 645.238 592.66C645.238 593.455 645.478 594.074 645.958 594.516C646.464 594.928 647.104 595.252 647.878 595.487C648.678 595.723 649.558 595.929 650.518 596.106C651.478 596.253 652.438 596.459 653.398 596.724C654.358 596.96 655.224 597.298 655.998 597.74C656.798 598.182 657.438 598.8 657.918 599.595C658.424 600.39 658.678 601.45 658.678 602.776C658.678 604.189 658.304 605.411 657.558 606.442C656.811 607.473 655.758 608.282 654.398 608.871C653.038 609.431 651.411 609.711 649.518 609.711Z" fill="white"/>
<path fill-rule="evenodd" clip-rule="evenodd" d="M487.8 575.136C487.248 575.136 486.8 575.584 486.8 576.136V608.136C486.8 608.689 487.248 609.136 487.8 609.136H489.871C490.423 609.136 490.871 608.689 490.871 608.136V596.248C490.871 595.696 491.319 595.248 491.871 595.248H497.913C500.41 595.248 502.54 594.85 504.304 594.053C506.068 593.228 507.425 592.075 508.375 590.591C509.325 589.08 509.8 587.28 509.8 585.192C509.8 583.104 509.325 581.304 508.375 579.793C507.425 578.282 506.068 577.128 504.304 576.332C502.54 575.535 500.41 575.136 497.913 575.136H487.8ZM503.694 589.973C502.364 591.099 500.397 591.662 497.791 591.662H491.871C491.319 591.662 490.871 591.215 490.871 590.662V579.722C490.871 579.17 491.319 578.722 491.871 578.722H497.791C500.397 578.722 502.364 579.285 503.694 580.412C505.051 581.538 505.729 583.132 505.729 585.192C505.729 587.253 505.051 588.846 503.694 589.973Z" fill="white"/>
<path d="M452.002 608.993C450.263 608.993 448.719 608.627 447.372 607.895C446.025 607.163 444.96 606.144 444.176 604.839C443.392 603.534 443 602.022 443 600.304C443 598.808 443.257 597.439 443.772 596.198C444.286 594.956 445.107 593.763 446.233 592.617C447.36 591.439 448.842 590.229 450.679 588.988C452.173 587.969 453.337 587.078 454.169 586.314C455.027 585.55 455.627 584.834 455.97 584.166C456.337 583.466 456.521 582.718 456.521 581.922C456.521 580.84 456.227 579.964 455.639 579.296C455.051 578.596 454.206 578.245 453.104 578.245C451.953 578.245 451.046 578.627 450.385 579.391C449.748 580.123 449.43 581.094 449.43 582.304C449.43 582.909 449.503 583.497 449.65 584.07C449.822 584.611 450.116 585.232 450.532 585.932C450.973 586.601 451.598 587.46 452.406 588.511L466 606.081L464.016 609.136L449.577 590.468C448.719 589.354 448.046 588.367 447.556 587.508C447.066 586.617 446.711 585.757 446.49 584.93C446.27 584.102 446.16 583.259 446.16 582.399C446.16 580.903 446.441 579.598 447.005 578.484C447.593 577.338 448.401 576.463 449.43 575.858C450.483 575.222 451.708 574.903 453.104 574.903C454.402 574.903 455.529 575.19 456.484 575.763C457.439 576.304 458.174 577.1 458.689 578.15C459.227 579.169 459.497 580.41 459.497 581.874C459.497 583.147 459.252 584.325 458.762 585.407C458.297 586.489 457.537 587.54 456.484 588.558C455.431 589.577 454.01 590.675 452.222 591.853C450.752 592.84 449.601 593.763 448.768 594.622C447.936 595.45 447.336 596.277 446.968 597.105C446.625 597.932 446.454 598.839 446.454 599.826C446.454 600.877 446.686 601.815 447.152 602.643C447.642 603.439 448.315 604.06 449.173 604.505C450.054 604.951 451.071 605.174 452.222 605.174C453.863 605.174 455.345 604.712 456.668 603.789C457.99 602.866 459.093 601.481 459.975 599.635C460.881 597.789 461.542 595.497 461.959 592.76L464.788 593.953C464.298 597.168 463.453 599.89 462.252 602.118C461.077 604.346 459.619 606.049 457.88 607.227C456.141 608.404 454.182 608.993 452.002 608.993Z" fill="white"/>
<path d="M187.737 589.305C187.737 589.581 187.961 589.805 188.237 589.805H201.056C201.332 589.805 201.556 590.029 201.556 590.305V593.434C201.556 593.71 201.332 593.934 201.056 593.934H188.237C187.961 593.934 187.737 594.157 187.737 594.434V604.411C187.737 604.687 187.961 604.911 188.237 604.911H203.3C203.576 604.911 203.8 605.135 203.8 605.411V608.636C203.8 608.912 203.576 609.136 203.3 609.136H184.3C184.024 609.136 183.8 608.912 183.8 608.636V575.636C183.8 575.36 184.024 575.136 184.3 575.136H202.749C203.025 575.136 203.249 575.36 203.249 575.636V578.862C203.249 579.138 203.025 579.362 202.749 579.362H188.237C187.961 579.362 187.737 579.586 187.737 579.862V589.305Z" fill="white"/>
<path d="M131 554.5C131 553.119 132.119 552 133.5 552H695.5C696.881 552 698 553.119 698 554.5C698 555.881 696.881 557 695.5 557H133.5C132.119 557 131 555.881 131 554.5Z" fill="white"/>
<path d="M166 414H171V631H166V414Z" fill="white"/>
</svg>
