<svg width="683" height="683" viewBox="0 0 683 683" fill="none" xmlns="http://www.w3.org/2000/svg">
<g clip-path="url(#clip0_37_9)">
<g filter="url(#filter0_ddi_37_9)">
<path d="M288.945 107.372L15 291L289.02 140.264C289.319 140.1 289.681 140.099 289.981 140.262L564.5 290L290.056 107.37C289.719 107.146 289.281 107.147 288.945 107.372Z" fill="url(#paint0_radial_37_9)" fill-opacity="0.81" shape-rendering="crispEdges"/>
<path d="M288.389 106.541C289.06 106.091 289.937 106.089 290.61 106.537L565.054 289.168L564.021 290.878L289.502 141.141L15.4824 291.876L14.4434 290.169L288.389 106.541Z" stroke="url(#paint1_radial_37_9)" stroke-opacity="0.75" stroke-width="2" shape-rendering="crispEdges"/>
</g>
<g filter="url(#filter1_ddi_37_9)">
<path d="M669.327 286.897L394.67 85.4354C394.317 85.1764 393.837 85.1773 393.485 85.4375L359.733 110.375L357.097 112.322C356.554 112.724 356.557 113.538 357.104 113.935L378.983 129.843C379.308 130.08 379.745 130.098 380.089 129.889L393.56 121.721C393.878 121.528 394.276 121.527 394.594 121.719L669.327 286.897Z" fill="url(#paint2_radial_37_9)" fill-opacity="0.81" shape-rendering="crispEdges"/>
<path d="M392.891 84.6328C393.595 84.1127 394.556 84.1111 395.262 84.6289L669.918 286.091L668.812 287.754L394.079 122.576L380.607 130.744C379.918 131.162 379.046 131.125 378.395 130.651L356.516 114.744C355.422 113.949 355.416 112.322 356.503 111.519L359.139 109.57L392.891 84.6328Z" stroke="url(#paint3_radial_37_9)" stroke-opacity="0.75" stroke-width="2" shape-rendering="crispEdges"/>
</g>
<path d="M343.528 503.536C331.368 503.536 321.896 500.464 315.112 494.32C308.328 488.048 304.936 478.768 304.936 466.48V378.856C304.936 377.199 306.279 375.856 307.936 375.856H331.888C333.545 375.856 334.888 377.199 334.888 378.856V466.096C334.888 470.448 336.04 473.84 338.344 476.272C340.648 478.576 343.784 479.728 347.752 479.728C350.959 479.728 353.844 479.141 356.406 477.967C358.232 477.13 360.569 477.776 361.286 479.653L367.082 494.835C367.571 496.114 367.138 497.575 365.959 498.271C363.305 499.839 360.243 501.082 356.776 502C352.552 503.024 348.136 503.536 343.528 503.536ZM292 424.048C290.343 424.048 289 422.705 289 421.048V404.008C289 402.351 290.343 401.008 292 401.008H357.616C359.273 401.008 360.616 402.351 360.616 404.008V421.048C360.616 422.705 359.273 424.048 357.616 424.048H292Z" fill="#F0F0F0"/>
<path d="M424.715 503.536C412.555 503.536 403.083 500.464 396.299 494.32C389.516 488.048 386.124 478.768 386.124 466.48V378.856C386.124 377.199 387.467 375.856 389.124 375.856H413.076C414.732 375.856 416.076 377.199 416.076 378.856V466.096C416.076 470.448 417.228 473.84 419.532 476.272C421.836 478.576 424.971 479.728 428.939 479.728C432.147 479.728 435.031 479.141 437.593 477.967C439.419 477.13 441.756 477.776 442.473 479.653L448.27 494.835C448.758 496.114 448.326 497.575 447.147 498.271C444.492 499.839 441.431 501.082 437.964 502C433.74 503.024 429.324 503.536 424.715 503.536ZM373.188 424.048C371.531 424.048 370.188 422.705 370.188 421.048V404.008C370.188 402.351 371.531 401.008 373.188 401.008H438.803C440.46 401.008 441.803 402.351 441.803 404.008V421.048C441.803 422.705 440.46 424.048 438.803 424.048H373.188Z" fill="#F0F0F0"/>
<rect x="459" y="400" width="29" height="104" rx="3" fill="#F0F0F0"/>
<rect x="461" y="358" width="25" height="25" rx="3" fill="#F0F0F0"/>
<path d="M195 366C195 364.895 195.895 364 197 364H278C279.657 364 281 365.343 281 367V385C281 386.657 279.657 388 278 388H224.97C223.877 388 222.987 388.877 222.971 389.97L222.53 419.47C222.514 420.586 223.414 421.5 224.53 421.5H270.5C272.157 421.5 273.5 422.843 273.5 424.5V443C273.5 444.657 272.157 446 270.5 446H224.5C223.395 446 222.5 446.895 222.5 448V477.016C222.5 478.115 223.385 479.007 224.483 479.016L280.025 479.475C281.672 479.489 283 480.828 283 482.475V499C283 500.657 281.657 502 280 502H197C195.895 502 195 501.105 195 500V366Z" fill="#F0F0F0"/>
<g filter="url(#filter2_d_37_9)">
<rect x="328" y="319" width="26" height="6" rx="1" fill="url(#paint4_radial_37_9)"/>
<rect x="329" y="327" width="24" height="6" rx="1" fill="url(#paint5_radial_37_9)"/>
<path d="M330.087 335.995C329.992 335.451 330.448 335 331 335H351C351.552 335 352.009 335.452 351.899 335.993C350.983 340.52 344.041 344 340.45 344C336.859 344 330.876 340.52 330.087 335.995Z" fill="url(#paint6_radial_37_9)"/>
<g filter="url(#filter3_ddi_37_9)">
<path d="M326 313.5C326 315.709 327.791 317.5 330 317.5H352C354.209 317.5 356 315.709 356 313.5V305.422C356 304.502 356.317 303.61 356.898 302.897L365.36 292.5C369.516 287.288 372 280.684 372 273.5C372 256.655 358.345 243 341.5 243C324.655 243 311 256.655 311 273.5C311 280.684 313.484 287.288 317.64 292.5L325.235 302.948C325.732 303.632 326 304.455 326 305.3V313.5Z" fill="url(#paint7_radial_37_9)" fill-opacity="0.68" shape-rendering="crispEdges"/>
</g>
</g>
<path d="M141.32 552.814C143.053 552.814 144.573 553.182 145.88 553.918C147.213 554.654 148.253 555.773 149 557.275C149.747 558.777 150.12 560.676 150.12 562.973V575.446C150.12 575.998 149.672 576.446 149.12 576.446H147.28C146.728 576.446 146.28 575.998 146.28 575.446V563.459C146.28 561.192 145.773 559.484 144.76 558.335C143.773 557.187 142.373 556.613 140.56 556.613C139.2 556.613 138.013 556.907 137 557.496C135.987 558.085 135.2 558.954 134.64 560.102C134.107 561.251 133.84 562.679 133.84 564.387V575.446C133.84 575.998 133.392 576.446 132.84 576.446H131C130.448 576.446 130 575.998 130 575.446V554.035C130 553.482 130.448 553.035 131 553.035H132.747C133.262 553.035 133.68 553.452 133.68 553.968V557.685C133.68 558.009 133.228 558.088 133.119 557.783C133.094 557.712 133.097 557.634 133.129 557.567C133.823 556.086 134.873 554.929 136.28 554.095C137.72 553.241 139.4 552.814 141.32 552.814Z" fill="#A4A4A4"/>
<path d="M168.107 585.28C166.16 585.28 164.267 584.971 162.427 584.352C160.901 583.857 159.612 583.174 158.558 582.304C158.209 582.015 158.141 581.516 158.363 581.121L159.195 579.643C159.515 579.075 160.287 578.962 160.816 579.343C161.592 579.903 162.476 580.366 163.467 580.73C164.907 581.29 166.413 581.57 167.987 581.57C170.493 581.57 172.333 580.922 173.507 579.626C174.68 578.33 175.267 576.357 175.267 573.707V568.76L175.667 564.122L175.467 559.44V554.035C175.467 553.482 175.914 553.035 176.467 553.035H178.107C178.659 553.035 179.107 553.482 179.107 554.035V573.265C179.107 577.388 178.173 580.421 176.307 582.365C174.44 584.308 171.707 585.28 168.107 585.28ZM167.627 575.474C165.573 575.474 163.733 575.003 162.107 574.06C160.507 573.089 159.227 571.749 158.267 570.041C157.333 568.333 156.867 566.36 156.867 564.122C156.867 561.854 157.333 559.881 158.267 558.203C159.227 556.495 160.507 555.17 162.107 554.227C163.733 553.285 165.573 552.814 167.627 552.814C169.44 552.814 171.093 553.226 172.587 554.051C174.08 554.846 175.267 556.083 176.147 557.761C177.053 559.44 177.507 561.56 177.507 564.122C177.507 566.654 177.053 568.76 176.147 570.438C175.267 572.117 174.08 573.383 172.587 574.237C171.093 575.062 169.44 575.474 167.627 575.474ZM168.067 571.763C169.48 571.763 170.733 571.44 171.827 570.792C172.92 570.144 173.773 569.246 174.387 568.097C175.027 566.949 175.347 565.624 175.347 564.122C175.347 562.62 175.027 561.295 174.387 560.146C173.773 558.998 172.92 558.114 171.827 557.496C170.733 556.848 169.48 556.524 168.067 556.524C166.653 556.524 165.387 556.848 164.267 557.496C163.173 558.114 162.307 558.998 161.667 560.146C161.053 561.295 160.747 562.62 160.747 564.122C160.747 565.624 161.053 566.949 161.667 568.097C162.307 569.246 163.173 570.144 164.267 570.792C165.387 571.44 166.653 571.763 168.067 571.763Z" fill="#A4A4A4"/>
<path d="M197.484 576.711C195.217 576.711 193.217 576.195 191.484 575.165C189.777 574.134 188.444 572.721 187.484 570.924C186.55 569.128 186.084 567.067 186.084 564.74C186.084 562.414 186.537 560.352 187.444 558.556C188.377 556.76 189.644 555.361 191.244 554.36C192.87 553.329 194.697 552.814 196.724 552.814C198.777 552.814 200.59 553.314 202.164 554.316C203.737 555.317 204.964 556.73 205.844 558.556C206.75 560.352 207.204 562.458 207.204 564.873C207.204 565.049 207.19 565.256 207.164 565.491C207.164 565.871 206.839 566.154 206.46 566.154H190.084C189.531 566.154 189.084 565.706 189.084 565.154V564.106C189.084 563.554 189.531 563.106 190.084 563.106H203.94C204.299 563.106 204.441 563.57 204.145 563.771C203.901 563.937 203.568 563.758 203.553 563.464C203.494 562.243 203.217 561.137 202.724 560.146C202.137 558.968 201.324 558.056 200.284 557.408C199.27 556.73 198.084 556.392 196.724 556.392C195.39 556.392 194.204 556.73 193.164 557.408C192.124 558.056 191.31 558.983 190.724 560.19C190.137 561.368 189.844 562.723 189.844 564.254V564.961C189.844 566.522 190.164 567.921 190.804 569.157C191.47 570.365 192.39 571.307 193.564 571.984C194.737 572.662 196.084 573 197.604 573C198.857 573 199.99 572.765 201.004 572.294C201.678 571.988 202.296 571.584 202.858 571.08C203.337 570.652 204.099 570.657 204.492 571.165L205.369 572.299C205.649 572.66 205.652 573.168 205.345 573.505C204.478 574.454 203.444 575.199 202.244 575.739C200.83 576.387 199.244 576.711 197.484 576.711Z" fill="#A4A4A4"/>
<path d="M225.456 552.814C227.189 552.814 228.709 553.182 230.016 553.918C231.349 554.654 232.389 555.773 233.136 557.275C233.883 558.777 234.256 560.676 234.256 562.973V575.446C234.256 575.998 233.808 576.446 233.256 576.446H231.416C230.864 576.446 230.416 575.998 230.416 575.446V563.459C230.416 561.192 229.909 559.484 228.896 558.335C227.909 557.187 226.509 556.613 224.696 556.613C223.336 556.613 222.149 556.907 221.136 557.496C220.123 558.085 219.336 558.954 218.776 560.102C218.243 561.251 217.976 562.679 217.976 564.387V575.446C217.976 575.998 217.528 576.446 216.976 576.446H215.136C214.584 576.446 214.136 575.998 214.136 575.446V554.035C214.136 553.482 214.584 553.035 215.136 553.035H216.883C217.398 553.035 217.816 553.452 217.816 553.968V557.685C217.816 558.009 217.364 558.088 217.255 557.783C217.23 557.712 217.233 557.634 217.265 557.567C217.959 556.086 219.009 554.929 220.416 554.095C221.856 553.241 223.536 552.814 225.456 552.814Z" fill="#A4A4A4"/>
<path d="M254.283 552.814C256.016 552.814 257.536 553.182 258.842 553.918C260.176 554.654 261.216 555.773 261.963 557.275C262.709 558.777 263.083 560.676 263.083 562.973V575.446C263.083 575.998 262.635 576.446 262.083 576.446H260.243C259.69 576.446 259.243 575.998 259.243 575.446V563.459C259.243 561.192 258.736 559.484 257.723 558.335C256.736 557.187 255.336 556.613 253.522 556.613C252.162 556.613 250.976 556.907 249.963 557.496C248.949 558.085 248.162 558.954 247.603 560.102C247.069 561.251 246.802 562.679 246.802 564.387V575.446C246.802 575.998 246.355 576.446 245.802 576.446H243.963C243.41 576.446 242.963 575.998 242.963 575.446V544.67C242.963 544.118 243.41 543.67 243.963 543.67H245.802C246.355 543.67 246.802 544.118 246.802 544.67V557.673C246.802 558.063 246.271 558.177 246.11 557.822C246.067 557.727 246.067 557.618 246.112 557.524C246.806 556.064 247.849 554.921 249.243 554.095C250.683 553.241 252.363 552.814 254.283 552.814Z" fill="#A4A4A4"/>
<path d="M285.949 576.446C285.397 576.446 284.949 575.998 284.949 575.446V571.605C284.949 571.534 284.942 571.464 284.927 571.394L284.772 570.675C284.757 570.606 284.749 570.535 284.749 570.464V562.134C284.749 560.338 284.269 558.954 283.309 557.982C282.376 556.981 280.962 556.48 279.069 556.48C277.816 556.48 276.589 556.716 275.389 557.187C274.655 557.457 273.99 557.788 273.395 558.18C272.839 558.546 272.051 558.405 271.752 557.81L271.094 556.504C270.891 556.099 270.982 555.604 271.342 555.329C272.306 554.595 273.415 554.022 274.669 553.609C276.216 553.079 277.829 552.814 279.509 552.814C282.416 552.814 284.656 553.594 286.229 555.155C287.802 556.716 288.589 559.101 288.589 562.311V575.446C288.589 575.998 288.141 576.446 287.589 576.446H285.949ZM277.989 576.711C276.416 576.711 275.029 576.416 273.829 575.827C272.656 575.238 271.749 574.429 271.109 573.398C270.469 572.338 270.149 571.145 270.149 569.82C270.149 568.554 270.416 567.405 270.949 566.375C271.509 565.344 272.402 564.519 273.629 563.901C274.882 563.283 276.562 562.973 278.669 562.973H284.389C284.941 562.973 285.389 563.421 285.389 563.973V565.021C285.389 565.573 284.941 566.021 284.389 566.021H278.829C276.909 566.021 275.616 566.375 274.949 567.081C274.282 567.788 273.949 568.642 273.949 569.643C273.949 570.792 274.362 571.719 275.189 572.426C276.016 573.103 277.162 573.442 278.629 573.442C280.069 573.442 281.322 573.089 282.389 572.382C283.482 571.675 284.269 570.644 284.749 569.29L285.43 571.903C285.482 572.1 285.474 572.309 285.395 572.496C284.873 573.745 284.018 574.752 282.829 575.518C281.549 576.313 279.936 576.711 277.989 576.711Z" fill="#A4A4A4"/>
<path d="M298.295 576.446C297.743 576.446 297.295 575.998 297.295 575.446V554.035C297.295 553.482 297.743 553.035 298.295 553.035H300.336C300.689 553.035 300.975 553.321 300.975 553.674V557.817C300.975 558.027 300.673 558.061 300.627 557.856C300.619 557.823 300.621 557.788 300.633 557.757C301.222 556.161 302.203 554.94 303.575 554.095C304.728 553.385 306.101 552.97 307.696 552.85C308.247 552.809 308.695 553.262 308.695 553.814V556.439C308.695 556.69 308.466 556.878 308.215 556.878C308.082 556.878 307.949 556.878 307.815 556.878C305.762 556.878 304.135 557.555 302.935 558.91C301.735 560.264 301.135 562.222 301.135 564.784V575.446C301.135 575.998 300.688 576.446 300.135 576.446H298.295Z" fill="#A4A4A4"/>
<path d="M316.028 576.446C315.476 576.446 315.028 575.998 315.028 575.446V554.035C315.028 553.482 315.476 553.035 316.028 553.035H317.868C318.42 553.035 318.868 553.482 318.868 554.035V575.446C318.868 575.998 318.42 576.446 317.868 576.446H316.028ZM316.948 548.529C316.201 548.529 315.575 548.264 315.068 547.734C314.588 547.204 314.348 546.556 314.348 545.791C314.348 544.995 314.588 544.333 315.068 543.803C315.575 543.273 316.201 543.008 316.948 543.008C317.695 543.008 318.308 543.273 318.788 543.803C319.295 544.303 319.548 544.937 319.548 545.702C319.548 546.497 319.308 547.175 318.828 547.734C318.348 548.264 317.721 548.529 316.948 548.529Z" fill="#A4A4A4"/>
<path d="M341.96 576.446C341.408 576.446 340.96 575.998 340.96 575.446V571.605C340.96 571.534 340.952 571.464 340.938 571.394L340.782 570.675C340.768 570.606 340.76 570.535 340.76 570.464V562.134C340.76 560.338 340.28 558.954 339.32 557.982C338.387 556.981 336.973 556.48 335.08 556.48C333.827 556.48 332.6 556.716 331.4 557.187C330.665 557.457 330.001 557.788 329.406 558.18C328.85 558.546 328.062 558.405 327.763 557.81L327.105 556.504C326.902 556.099 326.993 555.604 327.353 555.329C328.317 554.595 329.426 554.022 330.68 553.609C332.227 553.079 333.84 552.814 335.52 552.814C338.427 552.814 340.667 553.594 342.24 555.155C343.813 556.716 344.6 559.101 344.6 562.311V575.446C344.6 575.998 344.152 576.446 343.6 576.446H341.96ZM334 576.711C332.427 576.711 331.04 576.416 329.84 575.827C328.667 575.238 327.76 574.429 327.12 573.398C326.48 572.338 326.16 571.145 326.16 569.82C326.16 568.554 326.427 567.405 326.96 566.375C327.52 565.344 328.413 564.519 329.64 563.901C330.893 563.283 332.573 562.973 334.68 562.973H340.4C340.952 562.973 341.4 563.421 341.4 563.973V565.021C341.4 565.573 340.952 566.021 340.4 566.021H334.84C332.92 566.021 331.627 566.375 330.96 567.081C330.293 567.788 329.96 568.642 329.96 569.643C329.96 570.792 330.373 571.719 331.2 572.426C332.027 573.103 333.173 573.442 334.64 573.442C336.08 573.442 337.333 573.089 338.4 572.382C339.493 571.675 340.28 570.644 340.76 569.29L341.441 571.903C341.492 572.1 341.484 572.309 341.406 572.496C340.884 573.745 340.029 574.752 338.84 575.518C337.56 576.313 335.947 576.711 334 576.711Z" fill="#A4A4A4"/>
<path d="M435 576.446C434.448 576.446 434 575.998 434 575.446V554.035C434 553.482 434.448 553.035 435 553.035H437.04C437.394 553.035 437.68 553.321 437.68 553.674V557.817C437.68 558.027 437.378 558.061 437.331 557.856C437.324 557.823 437.326 557.788 437.338 557.757C437.927 556.161 438.907 554.94 440.28 554.095C441.433 553.385 442.806 552.97 444.401 552.85C444.951 552.809 445.4 553.262 445.4 553.814V556.439C445.4 556.69 445.171 556.878 444.92 556.878C444.787 556.878 444.653 556.878 444.52 556.878C442.467 556.878 440.84 557.555 439.64 558.91C438.44 560.264 437.84 562.222 437.84 564.784V575.446C437.84 575.998 437.392 576.446 436.84 576.446H435Z" fill="#A4A4A4"/>
<path d="M461.017 576.711C458.884 576.711 456.991 576.195 455.337 575.165C453.684 574.134 452.378 572.721 451.417 570.924C450.458 569.098 449.977 567.037 449.977 564.74C449.977 562.414 450.458 560.352 451.417 558.556C452.378 556.76 453.684 555.361 455.337 554.36C456.991 553.329 458.884 552.814 461.017 552.814C463.124 552.814 465.004 553.329 466.658 554.36C468.338 555.361 469.644 556.76 470.578 558.556C471.538 560.323 472.018 562.384 472.018 564.74C472.018 567.067 471.538 569.128 470.578 570.924C469.644 572.721 468.338 574.134 466.658 575.165C465.004 576.195 463.124 576.711 461.017 576.711ZM461.017 573C462.378 573 463.591 572.662 464.657 571.984C465.751 571.307 466.604 570.35 467.217 569.113C467.831 567.847 468.138 566.389 468.138 564.74C468.138 563.062 467.831 561.619 467.217 560.411C466.604 559.175 465.751 558.217 464.657 557.54C463.591 556.863 462.378 556.524 461.017 556.524C459.657 556.524 458.444 556.863 457.378 557.54C456.311 558.217 455.457 559.175 454.817 560.411C454.177 561.619 453.858 563.062 453.858 564.74C453.858 566.389 454.177 567.847 454.817 569.113C455.457 570.35 456.311 571.307 457.378 571.984C458.444 572.662 459.657 573 461.017 573Z" fill="#A4A4A4"/>
<path d="M476.608 585.28C475.728 585.28 474.888 585.162 474.088 584.927C473.525 584.766 473.023 584.551 472.583 584.281C472.221 584.058 472.109 583.601 472.26 583.203L472.724 581.98C472.975 581.318 473.836 581.118 474.495 581.376C475.048 581.594 475.673 581.702 476.368 581.702C477.381 581.702 478.155 581.349 478.688 580.642C479.248 579.965 479.528 578.949 479.528 577.594V554.035C479.528 553.482 479.976 553.035 480.528 553.035H482.368C482.92 553.035 483.368 553.482 483.368 554.035V577.506C483.368 579.891 482.781 581.776 481.608 583.16C480.461 584.573 478.795 585.28 476.608 585.28ZM481.448 548.529C480.701 548.529 480.075 548.264 479.568 547.734C479.088 547.204 478.848 546.556 478.848 545.791C478.848 544.995 479.088 544.333 479.568 543.803C480.075 543.273 480.701 543.008 481.448 543.008C482.195 543.008 482.808 543.273 483.288 543.803C483.795 544.303 484.048 544.937 484.048 545.702C484.048 546.497 483.808 547.175 483.328 547.734C482.848 548.264 482.221 548.529 481.448 548.529Z" fill="#A4A4A4"/>
<path d="M502.135 576.711C499.869 576.711 497.869 576.195 496.135 575.165C494.429 574.134 493.095 572.721 492.135 570.924C491.202 569.128 490.735 567.067 490.735 564.74C490.735 562.414 491.189 560.352 492.095 558.556C493.029 556.76 494.295 555.361 495.895 554.36C497.522 553.329 499.349 552.814 501.375 552.814C503.429 552.814 505.242 553.314 506.815 554.316C508.389 555.317 509.615 556.73 510.495 558.556C511.402 560.352 511.855 562.458 511.855 564.873C511.855 565.049 511.842 565.256 511.815 565.491C511.815 565.871 511.491 566.154 511.111 566.154H494.735C494.183 566.154 493.735 565.706 493.735 565.154V564.106C493.735 563.554 494.183 563.106 494.735 563.106H508.592C508.95 563.106 509.093 563.57 508.796 563.771C508.552 563.937 508.219 563.758 508.205 563.464C508.145 562.243 507.869 561.137 507.375 560.146C506.789 558.968 505.975 558.056 504.935 557.408C503.922 556.73 502.735 556.392 501.375 556.392C500.042 556.392 498.855 556.73 497.815 557.408C496.775 558.056 495.962 558.983 495.375 560.19C494.789 561.368 494.495 562.723 494.495 564.254V564.961C494.495 566.522 494.815 567.921 495.455 569.157C496.122 570.365 497.042 571.307 498.215 571.984C499.389 572.662 500.735 573 502.255 573C503.509 573 504.642 572.765 505.655 572.294C506.33 571.988 506.948 571.584 507.51 571.08C507.988 570.652 508.75 570.657 509.143 571.165L510.021 572.299C510.3 572.66 510.304 573.168 509.996 573.505C509.129 574.454 508.096 575.199 506.895 575.739C505.482 576.387 503.895 576.711 502.135 576.711Z" fill="#A4A4A4"/>
<path d="M526.467 576.711C524.334 576.711 522.681 576.078 521.507 574.811C520.334 573.545 519.747 571.734 519.747 569.378V548.911C519.747 548.358 520.195 547.911 520.747 547.911H522.588C523.14 547.911 523.588 548.358 523.588 548.911V569.202C523.588 570.468 523.868 571.44 524.427 572.117C525.014 572.794 525.841 573.133 526.908 573.133C527.558 573.133 528.151 573.024 528.684 572.808C529.335 572.543 530.185 572.732 530.442 573.386L530.861 574.451C531.01 574.829 530.92 575.268 530.592 575.508C530.12 575.853 529.585 576.122 528.988 576.313C528.188 576.578 527.347 576.711 526.467 576.711ZM517.147 556.524C516.595 556.524 516.147 556.077 516.147 555.524V554.035C516.147 553.482 516.595 553.035 517.147 553.035H528.668C529.22 553.035 529.668 553.482 529.668 554.035V555.524C529.668 556.077 529.22 556.524 528.668 556.524H517.147Z" fill="#A4A4A4"/>
<path d="M546.127 576.711C543.994 576.711 542.1 576.195 540.447 575.165C538.794 574.134 537.487 572.721 536.527 570.924C535.567 569.098 535.087 567.037 535.087 564.74C535.087 562.414 535.567 560.352 536.527 558.556C537.487 556.76 538.794 555.361 540.447 554.36C542.1 553.329 543.994 552.814 546.127 552.814C548.234 552.814 550.114 553.329 551.767 554.36C553.447 555.361 554.754 556.76 555.687 558.556C556.647 560.323 557.127 562.384 557.127 564.74C557.127 567.067 556.647 569.128 555.687 570.924C554.754 572.721 553.447 574.134 551.767 575.165C550.114 576.195 548.234 576.711 546.127 576.711ZM546.127 573C547.487 573 548.7 572.662 549.767 571.984C550.86 571.307 551.714 570.35 552.327 569.113C552.94 567.847 553.247 566.389 553.247 564.74C553.247 563.062 552.94 561.619 552.327 560.411C551.714 559.175 550.86 558.217 549.767 557.54C548.7 556.863 547.487 556.524 546.127 556.524C544.767 556.524 543.554 556.863 542.487 557.54C541.42 558.217 540.567 559.175 539.927 560.411C539.287 561.619 538.967 563.062 538.967 564.74C538.967 566.389 539.287 567.847 539.927 569.113C540.567 570.35 541.42 571.307 542.487 571.984C543.554 572.662 544.767 573 546.127 573Z" fill="#A4A4A4"/>
<path d="M570.518 576.711C568.758 576.711 567.077 576.446 565.477 575.916C564.234 575.497 563.199 575.004 562.372 574.438C561.997 574.181 561.894 573.686 562.089 573.276L562.833 571.716C563.104 571.146 563.83 570.968 564.377 571.282C565.066 571.678 565.846 572.03 566.717 572.338C568.051 572.809 569.411 573.044 570.798 573.044C572.584 573.044 573.864 572.765 574.637 572.205C575.438 571.646 575.837 570.865 575.837 569.864C575.837 569.128 575.597 568.554 575.117 568.141C574.637 567.729 573.997 567.42 573.197 567.214C572.424 567.008 571.558 566.831 570.598 566.684C569.637 566.507 568.678 566.301 567.717 566.065C566.757 565.8 565.878 565.447 565.077 565.005C564.277 564.534 563.637 563.901 563.158 563.106C562.678 562.281 562.438 561.192 562.438 559.837C562.438 558.424 562.798 557.187 563.518 556.127C564.238 555.067 565.251 554.257 566.557 553.697C567.891 553.108 569.464 552.814 571.277 552.814C572.664 552.814 574.064 553.005 575.477 553.388C576.575 553.657 577.518 554.021 578.306 554.479C578.722 554.72 578.845 555.247 578.634 555.678L577.884 557.214C577.61 557.775 576.896 557.946 576.352 557.64C575.704 557.276 575.04 557.007 574.357 556.833C573.318 556.568 572.277 556.436 571.238 556.436C569.558 556.436 568.304 556.745 567.477 557.364C566.651 557.952 566.238 558.718 566.238 559.66C566.238 560.456 566.478 561.074 566.958 561.516C567.464 561.928 568.104 562.252 568.878 562.487C569.678 562.723 570.557 562.929 571.518 563.106C572.478 563.253 573.438 563.459 574.398 563.724C575.358 563.96 576.224 564.298 576.997 564.74C577.798 565.182 578.438 565.8 578.917 566.595C579.424 567.39 579.678 568.451 579.678 569.776C579.678 571.189 579.304 572.411 578.557 573.442C577.811 574.473 576.758 575.283 575.398 575.871C574.038 576.431 572.411 576.711 570.518 576.711Z" fill="#A4A4A4"/>
<path fill-rule="evenodd" clip-rule="evenodd" d="M408.8 542.136C408.248 542.136 407.8 542.584 407.8 543.136V575.136C407.8 575.689 408.248 576.136 408.8 576.136H410.871C411.423 576.136 411.871 575.689 411.871 575.136V563.248C411.871 562.696 412.319 562.248 412.871 562.248H418.913C421.41 562.248 423.54 561.85 425.304 561.053C427.068 560.229 428.425 559.075 429.375 557.591C430.325 556.08 430.8 554.28 430.8 552.192C430.8 550.104 430.325 548.305 429.375 546.793C428.425 545.282 427.068 544.128 425.304 543.332C423.54 542.535 421.41 542.136 418.913 542.136H408.8ZM424.694 556.973C423.364 558.099 421.397 558.663 418.791 558.663H412.871C412.319 558.663 411.871 558.215 411.871 557.663V546.722C411.871 546.17 412.319 545.722 412.871 545.722H418.791C421.397 545.722 423.364 546.285 424.694 547.412C426.051 548.538 426.729 550.132 426.729 552.192C426.729 554.253 426.051 555.846 424.694 556.973Z" fill="#A4A4A4"/>
<path d="M373.002 575.993C371.263 575.993 369.719 575.627 368.372 574.895C367.025 574.163 365.96 573.144 365.176 571.839C364.392 570.534 364 569.022 364 567.304C364 565.808 364.257 564.439 364.772 563.198C365.286 561.956 366.106 560.763 367.233 559.617C368.36 558.439 369.842 557.229 371.679 555.988C373.173 554.97 374.337 554.078 375.169 553.314C376.027 552.55 376.627 551.834 376.97 551.166C377.337 550.466 377.521 549.718 377.521 548.922C377.521 547.84 377.227 546.964 376.639 546.296C376.051 545.596 375.206 545.245 374.104 545.245C372.953 545.245 372.046 545.627 371.385 546.391C370.748 547.123 370.43 548.094 370.43 549.304C370.43 549.909 370.503 550.497 370.65 551.07C370.822 551.611 371.116 552.232 371.532 552.932C371.973 553.601 372.597 554.46 373.406 555.511L387 573.081L385.016 576.136L370.577 557.468C369.719 556.354 369.046 555.367 368.556 554.508C368.066 553.617 367.711 552.757 367.49 551.93C367.27 551.102 367.16 550.259 367.16 549.399C367.16 547.903 367.441 546.598 368.005 545.484C368.593 544.338 369.401 543.463 370.43 542.858C371.483 542.222 372.708 541.903 374.104 541.903C375.402 541.903 376.529 542.19 377.484 542.763C378.439 543.304 379.174 544.1 379.689 545.15C380.227 546.169 380.497 547.41 380.497 548.874C380.497 550.147 380.252 551.325 379.762 552.407C379.297 553.489 378.537 554.54 377.484 555.558C376.431 556.577 375.01 557.675 373.222 558.853C371.752 559.839 370.601 560.763 369.768 561.622C368.936 562.45 368.335 563.277 367.968 564.105C367.625 564.932 367.454 565.839 367.454 566.826C367.454 567.877 367.686 568.816 368.152 569.643C368.642 570.439 369.315 571.06 370.173 571.505C371.054 571.951 372.071 572.174 373.222 572.174C374.863 572.174 376.345 571.712 377.668 570.789C378.99 569.866 380.093 568.481 380.974 566.635C381.881 564.789 382.542 562.497 382.958 559.76L385.788 560.954C385.298 564.168 384.453 566.89 383.252 569.118C382.077 571.346 380.619 573.049 378.88 574.227C377.141 575.404 375.182 575.993 373.002 575.993Z" fill="#A4A4A4"/>
<path d="M108.737 556.305C108.737 556.581 108.961 556.805 109.237 556.805H122.056C122.332 556.805 122.556 557.029 122.556 557.305V560.434C122.556 560.71 122.332 560.934 122.056 560.934H109.237C108.961 560.934 108.737 561.157 108.737 561.434V571.411C108.737 571.687 108.961 571.911 109.237 571.911H124.3C124.576 571.911 124.8 572.135 124.8 572.411V575.636C124.8 575.913 124.576 576.136 124.3 576.136H105.3C105.024 576.136 104.8 575.913 104.8 575.636V542.636C104.8 542.36 105.024 542.136 105.3 542.136H123.749C124.025 542.136 124.249 542.36 124.249 542.636V545.862C124.249 546.138 124.025 546.362 123.749 546.362H109.237C108.961 546.362 108.737 546.586 108.737 546.862V556.305Z" fill="#A4A4A4"/>
<rect x="52" y="519" width="567" height="5" rx="2.5" fill="url(#paint8_radial_37_9)" fill-opacity="0.81"/>
<rect x="87" y="381" width="5" height="217" fill="url(#paint9_radial_37_9)" fill-opacity="0.81"/>
</g>
<defs>
<filter id="filter0_ddi_37_9" x="-13.9135" y="81.4025" width="607.321" height="250.15" filterUnits="userSpaceOnUse" color-interpolation-filters="sRGB">
<feFlood flood-opacity="0" result="BackgroundImageFix"/>
<feColorMatrix in="SourceAlpha" type="matrix" values="0 0 0 0 0 0 0 0 0 0 0 0 0 0 0 0 0 0 127 0" result="hardAlpha"/>
<feOffset dy="4"/>
<feGaussianBlur stdDeviation="13.9"/>
<feComposite in2="hardAlpha" operator="out"/>
<feColorMatrix type="matrix" values="0 0 0 0 1 0 0 0 0 0.709135 0 0 0 0 0.418269 0 0 0 0.37 0"/>
<feBlend mode="normal" in2="BackgroundImageFix" result="effect1_dropShadow_37_9"/>
<feColorMatrix in="SourceAlpha" type="matrix" values="0 0 0 0 0 0 0 0 0 0 0 0 0 0 0 0 0 0 127 0" result="hardAlpha"/>
<feOffset dy="11"/>
<feGaussianBlur stdDeviation="13.9"/>
<feComposite in2="hardAlpha" operator="out"/>
<feColorMatrix type="matrix" values="0 0 0 0 1 0 0 0 0 0.709135 0 0 0 0 0.418269 0 0 0 0.31 0"/>
<feBlend mode="normal" in2="effect1_dropShadow_37_9" result="effect2_dropShadow_37_9"/>
<feBlend mode="normal" in="SourceGraphic" in2="effect2_dropShadow_37_9" result="shape"/>
<feColorMatrix in="SourceAlpha" type="matrix" values="0 0 0 0 0 0 0 0 0 0 0 0 0 0 0 0 0 0 127 0" result="hardAlpha"/>
<feOffset dy="2"/>
<feGaussianBlur stdDeviation="13.9"/>
<feComposite in2="hardAlpha" operator="arithmetic" k2="-1" k3="1"/>
<feColorMatrix type="matrix" values="0 0 0 0 1 0 0 0 0 0.709135 0 0 0 0 0.418269 0 0 0 1 0"/>
<feBlend mode="normal" in2="shape" result="effect3_innerShadow_37_9"/>
</filter>
<filter id="filter1_ddi_37_9" x="326.892" y="59.4417" width="371.418" height="267.969" filterUnits="userSpaceOnUse" color-interpolation-filters="sRGB">
<feFlood flood-opacity="0" result="BackgroundImageFix"/>
<feColorMatrix in="SourceAlpha" type="matrix" values="0 0 0 0 0 0 0 0 0 0 0 0 0 0 0 0 0 0 127 0" result="hardAlpha"/>
<feOffset dy="4"/>
<feGaussianBlur stdDeviation="13.9"/>
<feComposite in2="hardAlpha" operator="out"/>
<feColorMatrix type="matrix" values="0 0 0 0 1 0 0 0 0 0.709135 0 0 0 0 0.418269 0 0 0 0.37 0"/>
<feBlend mode="normal" in2="BackgroundImageFix" result="effect1_dropShadow_37_9"/>
<feColorMatrix in="SourceAlpha" type="matrix" values="0 0 0 0 0 0 0 0 0 0 0 0 0 0 0 0 0 0 127 0" result="hardAlpha"/>
<feOffset dy="11"/>
<feGaussianBlur stdDeviation="13.9"/>
<feComposite in2="hardAlpha" operator="out"/>
<feColorMatrix type="matrix" values="0 0 0 0 1 0 0 0 0 0.709135 0 0 0 0 0.418269 0 0 0 0.31 0"/>
<feBlend mode="normal" in2="effect1_dropShadow_37_9" result="effect2_dropShadow_37_9"/>
<feBlend mode="normal" in="SourceGraphic" in2="effect2_dropShadow_37_9" result="shape"/>
<feColorMatrix in="SourceAlpha" type="matrix" values="0 0 0 0 0 0 0 0 0 0 0 0 0 0 0 0 0 0 127 0" result="hardAlpha"/>
<feOffset dy="2"/>
<feGaussianBlur stdDeviation="13.9"/>
<feComposite in2="hardAlpha" operator="arithmetic" k2="-1" k3="1"/>
<feColorMatrix type="matrix" values="0 0 0 0 1 0 0 0 0 0.709135 0 0 0 0 0.418269 0 0 0 1 0"/>
<feBlend mode="normal" in2="shape" result="effect3_innerShadow_37_9"/>
</filter>
<filter id="filter2_d_37_9" x="307" y="243" width="69" height="109" filterUnits="userSpaceOnUse" color-interpolation-filters="sRGB">
<feFlood flood-opacity="0" result="BackgroundImageFix"/>
<feColorMatrix in="SourceAlpha" type="matrix" values="0 0 0 0 0 0 0 0 0 0 0 0 0 0 0 0 0 0 127 0" result="hardAlpha"/>
<feOffset dy="4"/>
<feGaussianBlur stdDeviation="2"/>
<feComposite in2="hardAlpha" operator="out"/>
<feColorMatrix type="matrix" values="0 0 0 0 0 0 0 0 0 0 0 0 0 0 0 0 0 0 0.25 0"/>
<feBlend mode="normal" in2="BackgroundImageFix" result="effect1_dropShadow_37_9"/>
<feBlend mode="normal" in="SourceGraphic" in2="effect1_dropShadow_37_9" result="shape"/>
</filter>
<filter id="filter3_ddi_37_9" x="283.2" y="219.2" width="116.6" height="130.1" filterUnits="userSpaceOnUse" color-interpolation-filters="sRGB">
<feFlood flood-opacity="0" result="BackgroundImageFix"/>
<feColorMatrix in="SourceAlpha" type="matrix" values="0 0 0 0 0 0 0 0 0 0 0 0 0 0 0 0 0 0 127 0" result="hardAlpha"/>
<feOffset dy="4"/>
<feGaussianBlur stdDeviation="13.9"/>
<feComposite in2="hardAlpha" operator="out"/>
<feColorMatrix type="matrix" values="0 0 0 0 1 0 0 0 0 0.709135 0 0 0 0 0.418269 0 0 0 0.37 0"/>
<feBlend mode="normal" in2="BackgroundImageFix" result="effect1_dropShadow_37_9"/>
<feColorMatrix in="SourceAlpha" type="matrix" values="0 0 0 0 0 0 0 0 0 0 0 0 0 0 0 0 0 0 127 0" result="hardAlpha"/>
<feOffset dx="3" dy="-2"/>
<feGaussianBlur stdDeviation="5.5"/>
<feComposite in2="hardAlpha" operator="out"/>
<feColorMatrix type="matrix" values="0 0 0 0 0.998844 0 0 0 0 0.719744 0 0 0 0 0.520386 0 0 0 1 0"/>
<feBlend mode="normal" in2="effect1_dropShadow_37_9" result="effect2_dropShadow_37_9"/>
<feBlend mode="normal" in="SourceGraphic" in2="effect2_dropShadow_37_9" result="shape"/>
<feColorMatrix in="SourceAlpha" type="matrix" values="0 0 0 0 0 0 0 0 0 0 0 0 0 0 0 0 0 0 127 0" result="hardAlpha"/>
<feOffset dx="1" dy="2"/>
<feGaussianBlur stdDeviation="41.05"/>
<feComposite in2="hardAlpha" operator="arithmetic" k2="-1" k3="1"/>
<feColorMatrix type="matrix" values="0 0 0 0 0.976701 0 0 0 0 0.872806 0 0 0 0 0.754068 0 0 0 1 0"/>
<feBlend mode="normal" in2="shape" result="effect3_innerShadow_37_9"/>
</filter>
<radialGradient id="paint0_radial_37_9" cx="0" cy="0" r="1" gradientUnits="userSpaceOnUse" gradientTransform="translate(328.5 136) rotate(102.572) scale(142.415 425.31)">
<stop stop-color="#FFEFD4"/>
<stop offset="0.605769" stop-color="#CB9E69"/>
<stop offset="1" stop-color="#955B29"/>
</radialGradient>
<radialGradient id="paint1_radial_37_9" cx="0" cy="0" r="1" gradientUnits="userSpaceOnUse" gradientTransform="translate(328.5 136) rotate(102.572) scale(142.415 425.31)">
<stop stop-color="#FCDAA3"/>
<stop offset="0.384615" stop-color="#CB9E69"/>
<stop offset="1" stop-color="#955B29"/>
</radialGradient>
<radialGradient id="paint2_radial_37_9" cx="0" cy="0" r="1" gradientUnits="userSpaceOnUse" gradientTransform="translate(391.5 105) rotate(33.2952) scale(221.331 214.04)">
<stop stop-color="#FFEFD4"/>
<stop offset="0.423564" stop-color="#CB9E69"/>
<stop offset="1" stop-color="#955B29"/>
</radialGradient>
<radialGradient id="paint3_radial_37_9" cx="0" cy="0" r="1" gradientTransform="matrix(-31.0282 153.353 -415.489 -102.139 433.112 116.995)" gradientUnits="userSpaceOnUse">
<stop stop-color="#FCDAA3"/>
<stop offset="0.384615" stop-color="#CB9E69"/>
<stop offset="1" stop-color="#955B29"/>
</radialGradient>
<radialGradient id="paint4_radial_37_9" cx="0" cy="0" r="1" gradientTransform="matrix(-1.46679 4.53261 -19.6413 -3.01887 342.833 319.946)" gradientUnits="userSpaceOnUse">
<stop stop-color="#E68B3B"/>
<stop offset="0.509615" stop-color="#FBAC68"/>
<stop offset="1" stop-color="#FEFFF5"/>
</radialGradient>
<radialGradient id="paint5_radial_37_9" cx="0" cy="0" r="1" gradientTransform="matrix(-1.35396 4.53261 -18.1304 -3.01887 342.692 327.946)" gradientUnits="userSpaceOnUse">
<stop stop-color="#E68B3B"/>
<stop offset="0.509615" stop-color="#FBAC68"/>
<stop offset="1" stop-color="#FEFFF5"/>
</radialGradient>
<radialGradient id="paint6_radial_37_9" cx="0" cy="0" r="1" gradientTransform="matrix(-1.24113 6.79891 -16.6196 -4.52831 342.551 336.418)" gradientUnits="userSpaceOnUse">
<stop stop-color="#E68B3B"/>
<stop offset="0.509615" stop-color="#FBAC68"/>
<stop offset="1" stop-color="#FEFFF5"/>
</radialGradient>
<radialGradient id="paint7_radial_37_9" cx="0" cy="0" r="1" gradientTransform="matrix(-3.44131 56.2799 -46.0815 -37.4843 345.802 254.742)" gradientUnits="userSpaceOnUse">
<stop stop-color="#FFEFD4"/>
<stop offset="0.9999" stop-color="#DEBF9C"/>
<stop offset="1" stop-color="#FBAC68"/>
</radialGradient>
<radialGradient id="paint8_radial_37_9" cx="0" cy="0" r="1" gradientTransform="matrix(-31.9872 3.77717 -428.332 -2.51573 375.484 519.788)" gradientUnits="userSpaceOnUse">
<stop stop-color="#FFEFD4"/>
<stop offset="0.605769" stop-color="#CB9E69"/>
<stop offset="1" stop-color="#955B29"/>
</radialGradient>
<radialGradient id="paint9_radial_37_9" cx="0" cy="0" r="1" gradientTransform="matrix(-0.282074 163.929 -3.77717 -109.183 89.8526 415.201)" gradientUnits="userSpaceOnUse">
<stop stop-color="#FFEFD4"/>
<stop offset="0.605769" stop-color="#CB9E69"/>
<stop offset="1" stop-color="#955B29"/>
</radialGradient>
<clipPath id="clip0_37_9">
<rect width="683" height="683" fill="white"/>
</clipPath>
</defs>
</svg>
