<svg width="658" height="515" viewBox="0 0 658 515" fill="none" xmlns="http://www.w3.org/2000/svg">
<path d="M275.945 24.3719L2 208L276.02 57.264C276.319 57.0995 276.681 57.0989 276.981 57.2623L551.5 207L277.056 24.37C276.719 24.146 276.281 24.1467 275.945 24.3719Z" fill="url(#paint0_radial_76_2)" fill-opacity="0.81"/>
<path d="M275.389 23.541C276.06 23.0909 276.937 23.0892 277.61 23.5371L552.054 206.168L551.021 207.878L276.502 58.1406L2.48242 208.876L1.44336 207.169L275.389 23.541Z" stroke="url(#paint1_radial_76_2)" stroke-opacity="0.75" stroke-width="2"/>
<path d="M656.327 203.897L381.67 2.43541C381.317 2.17644 380.837 2.17728 380.485 2.43747L346.733 27.375L344.097 29.3224C343.554 29.724 343.557 30.538 344.104 30.9355L365.983 46.8426C366.308 47.0795 366.745 47.0978 367.089 46.8889L380.56 38.7207C380.878 38.5281 381.276 38.5274 381.594 38.7187L656.327 203.897Z" fill="url(#paint2_radial_76_2)" fill-opacity="0.81"/>
<path d="M379.891 1.63281C380.595 1.1127 381.556 1.11114 382.262 1.62891L656.918 203.091L655.812 204.754L381.079 39.5762L367.607 47.7441C366.918 48.1618 366.046 48.1252 365.395 47.6514L343.516 31.7441C342.422 30.9493 342.416 29.3219 343.503 28.5186L346.139 26.5703L379.891 1.63281Z" stroke="url(#paint3_radial_76_2)" stroke-opacity="0.75" stroke-width="2"/>
<path d="M330.528 420.536C318.368 420.536 308.896 417.464 302.112 411.32C295.328 405.048 291.936 395.768 291.936 383.48V295.856C291.936 294.199 293.279 292.856 294.936 292.856H318.888C320.545 292.856 321.888 294.199 321.888 295.856V383.096C321.888 387.448 323.04 390.84 325.344 393.272C327.648 395.576 330.784 396.728 334.752 396.728C337.959 396.728 340.844 396.141 343.406 394.967C345.232 394.13 347.569 394.776 348.286 396.653L354.082 411.835C354.571 413.114 354.138 414.575 352.959 415.271C350.305 416.839 347.243 418.082 343.776 419C339.552 420.024 335.136 420.536 330.528 420.536ZM279 341.048C277.343 341.048 276 339.705 276 338.048V321.008C276 319.351 277.343 318.008 279 318.008H344.616C346.273 318.008 347.616 319.351 347.616 321.008V338.048C347.616 339.705 346.273 341.048 344.616 341.048H279Z" fill="#F0F0F0"/>
<path d="M411.715 420.536C399.555 420.536 390.083 417.464 383.299 411.32C376.515 405.048 373.124 395.768 373.124 383.48V295.856C373.124 294.199 374.467 292.856 376.124 292.856H400.076C401.732 292.856 403.076 294.199 403.076 295.856V383.096C403.076 387.448 404.228 390.84 406.532 393.272C408.836 395.576 411.972 396.728 415.939 396.728C419.147 396.728 422.031 396.141 424.593 394.967C426.419 394.13 428.756 394.776 429.473 396.653L435.27 411.835C435.758 413.114 435.326 414.575 434.147 415.271C431.492 416.839 428.431 418.082 424.964 419C420.739 420.024 416.323 420.536 411.715 420.536ZM360.188 341.048C358.531 341.048 357.188 339.705 357.188 338.048V321.008C357.188 319.351 358.531 318.008 360.187 318.008H425.803C427.46 318.008 428.803 319.351 428.803 321.008V338.048C428.803 339.705 427.46 341.048 425.803 341.048H360.188Z" fill="#F0F0F0"/>
<rect x="446" y="317" width="29" height="104" rx="3" fill="#F0F0F0"/>
<rect x="448" y="275" width="25" height="25" rx="3" fill="#F0F0F0"/>
<path d="M182 283C182 281.895 182.895 281 184 281H265C266.657 281 268 282.343 268 284V302C268 303.657 266.657 305 265 305H211.97C210.877 305 209.987 305.877 209.971 306.97L209.53 336.47C209.514 337.586 210.414 338.5 211.53 338.5H257.5C259.157 338.5 260.5 339.843 260.5 341.5V360C260.5 361.657 259.157 363 257.5 363H211.5C210.395 363 209.5 363.895 209.5 365V394.016C209.5 395.115 210.385 396.007 211.483 396.016L267.025 396.475C268.672 396.489 270 397.828 270 399.475V416C270 417.657 268.657 419 267 419H184C182.895 419 182 418.105 182 417V283Z" fill="#F0F0F0"/>
<rect x="315" y="236" width="26" height="6" rx="1" fill="url(#paint4_radial_76_2)"/>
<rect x="316" y="244" width="24" height="6" rx="1" fill="url(#paint5_radial_76_2)"/>
<path d="M317.087 252.995C316.992 252.451 317.448 252 318 252H338C338.552 252 339.009 252.452 338.899 252.993C337.983 257.52 331.041 261 327.45 261C323.859 261 317.876 257.52 317.087 252.995Z" fill="url(#paint6_radial_76_2)"/>
<path d="M313 230.5C313 232.709 314.791 234.5 317 234.5H339C341.209 234.5 343 232.709 343 230.5V222.422C343 221.502 343.317 220.61 343.898 219.897L352.36 209.5C356.516 204.288 359 197.684 359 190.5C359 173.655 345.345 160 328.5 160C311.655 160 298 173.655 298 190.5C298 197.684 300.484 204.288 304.64 209.5L312.235 219.948C312.732 220.632 313 221.455 313 222.3V230.5Z" fill="url(#paint7_radial_76_2)" fill-opacity="0.68"/>
<path d="M128.32 469.814C130.053 469.814 131.573 470.182 132.88 470.918C134.213 471.654 135.253 472.773 136 474.275C136.747 475.777 137.12 477.676 137.12 479.973V492.446C137.12 492.998 136.672 493.446 136.12 493.446H134.28C133.728 493.446 133.28 492.998 133.28 492.446V480.459C133.28 478.192 132.773 476.484 131.76 475.335C130.773 474.187 129.373 473.613 127.56 473.613C126.2 473.613 125.013 473.907 124 474.496C122.987 475.085 122.2 475.954 121.64 477.102C121.107 478.251 120.84 479.679 120.84 481.387V492.446C120.84 492.998 120.392 493.446 119.84 493.446H118C117.448 493.446 117 492.998 117 492.446V471.035C117 470.482 117.448 470.035 118 470.035H119.747C120.262 470.035 120.68 470.452 120.68 470.968V474.685C120.68 475.009 120.228 475.088 120.119 474.783C120.094 474.712 120.097 474.634 120.129 474.567C120.823 473.086 121.873 471.929 123.28 471.095C124.72 470.241 126.4 469.814 128.32 469.814Z" fill="#A4A4A4"/>
<path d="M155.107 502.28C153.16 502.28 151.267 501.971 149.427 501.352C147.901 500.857 146.612 500.174 145.558 499.304C145.209 499.015 145.141 498.516 145.363 498.121L146.195 496.643C146.515 496.075 147.287 495.962 147.816 496.343C148.592 496.903 149.476 497.366 150.467 497.73C151.907 498.29 153.413 498.57 154.987 498.57C157.493 498.57 159.333 497.922 160.507 496.626C161.68 495.33 162.267 493.357 162.267 490.707V485.76L162.667 481.122L162.467 476.44V471.035C162.467 470.482 162.914 470.035 163.467 470.035H165.107C165.659 470.035 166.107 470.482 166.107 471.035V490.265C166.107 494.388 165.173 497.421 163.307 499.365C161.44 501.308 158.707 502.28 155.107 502.28ZM154.627 492.474C152.573 492.474 150.733 492.003 149.107 491.06C147.507 490.089 146.227 488.749 145.267 487.041C144.333 485.333 143.867 483.36 143.867 481.122C143.867 478.854 144.333 476.881 145.267 475.203C146.227 473.495 147.507 472.17 149.107 471.227C150.733 470.285 152.573 469.814 154.627 469.814C156.44 469.814 158.093 470.226 159.587 471.051C161.08 471.846 162.267 473.082 163.147 474.761C164.053 476.44 164.507 478.56 164.507 481.122C164.507 483.654 164.053 485.76 163.147 487.438C162.267 489.117 161.08 490.383 159.587 491.237C158.093 492.062 156.44 492.474 154.627 492.474ZM155.067 488.763C156.48 488.763 157.733 488.44 158.827 487.792C159.92 487.144 160.773 486.246 161.387 485.097C162.027 483.949 162.347 482.624 162.347 481.122C162.347 479.62 162.027 478.295 161.387 477.146C160.773 475.998 159.92 475.114 158.827 474.496C157.733 473.848 156.48 473.524 155.067 473.524C153.653 473.524 152.387 473.848 151.267 474.496C150.173 475.114 149.307 475.998 148.667 477.146C148.053 478.295 147.747 479.62 147.747 481.122C147.747 482.624 148.053 483.949 148.667 485.097C149.307 486.246 150.173 487.144 151.267 487.792C152.387 488.44 153.653 488.763 155.067 488.763Z" fill="#A4A4A4"/>
<path d="M184.484 493.711C182.217 493.711 180.217 493.195 178.484 492.165C176.777 491.134 175.444 489.72 174.484 487.924C173.55 486.128 173.084 484.067 173.084 481.74C173.084 479.414 173.537 477.352 174.444 475.556C175.377 473.76 176.644 472.361 178.244 471.36C179.87 470.329 181.697 469.814 183.724 469.814C185.777 469.814 187.59 470.314 189.164 471.316C190.737 472.317 191.964 473.73 192.844 475.556C193.75 477.352 194.204 479.458 194.204 481.873C194.204 482.049 194.19 482.255 194.164 482.491C194.164 482.871 193.839 483.154 193.46 483.154H177.084C176.531 483.154 176.084 482.706 176.084 482.154V481.106C176.084 480.553 176.531 480.106 177.084 480.106H190.94C191.299 480.106 191.441 480.569 191.145 480.771C190.901 480.937 190.568 480.758 190.553 480.463C190.494 479.243 190.217 478.137 189.724 477.146C189.137 475.968 188.324 475.055 187.284 474.408C186.27 473.73 185.084 473.392 183.724 473.392C182.39 473.392 181.204 473.73 180.164 474.408C179.124 475.055 178.31 475.983 177.724 477.19C177.137 478.368 176.844 479.723 176.844 481.254V481.961C176.844 483.522 177.164 484.92 177.804 486.157C178.47 487.365 179.39 488.307 180.564 488.984C181.737 489.662 183.084 490 184.604 490C185.857 490 186.99 489.765 188.004 489.293C188.678 488.988 189.296 488.584 189.858 488.08C190.337 487.651 191.099 487.657 191.492 488.165L192.369 489.299C192.649 489.66 192.652 490.168 192.345 490.505C191.478 491.454 190.444 492.199 189.244 492.739C187.83 493.387 186.244 493.711 184.484 493.711Z" fill="#A4A4A4"/>
<path d="M212.456 469.814C214.189 469.814 215.709 470.182 217.016 470.918C218.349 471.654 219.389 472.773 220.136 474.275C220.883 475.777 221.256 477.676 221.256 479.973V492.446C221.256 492.998 220.808 493.446 220.256 493.446H218.416C217.864 493.446 217.416 492.998 217.416 492.446V480.459C217.416 478.192 216.909 476.484 215.896 475.335C214.909 474.187 213.509 473.613 211.696 473.613C210.336 473.613 209.149 473.907 208.136 474.496C207.123 475.085 206.336 475.954 205.776 477.102C205.243 478.251 204.976 479.679 204.976 481.387V492.446C204.976 492.998 204.528 493.446 203.976 493.446H202.136C201.584 493.446 201.136 492.998 201.136 492.446V471.035C201.136 470.482 201.584 470.035 202.136 470.035H203.883C204.398 470.035 204.816 470.452 204.816 470.968V474.685C204.816 475.009 204.364 475.088 204.255 474.783C204.23 474.712 204.233 474.634 204.265 474.567C204.959 473.086 206.009 471.929 207.416 471.095C208.856 470.241 210.536 469.814 212.456 469.814Z" fill="#A4A4A4"/>
<path d="M241.283 469.814C243.016 469.814 244.536 470.182 245.842 470.918C247.176 471.654 248.216 472.773 248.963 474.275C249.709 475.777 250.083 477.676 250.083 479.973V492.446C250.083 492.998 249.635 493.446 249.083 493.446H247.243C246.69 493.446 246.243 492.998 246.243 492.446V480.459C246.243 478.192 245.736 476.484 244.723 475.335C243.736 474.187 242.336 473.613 240.522 473.613C239.162 473.613 237.976 473.907 236.963 474.496C235.949 475.085 235.163 475.954 234.603 477.102C234.069 478.251 233.802 479.679 233.802 481.387V492.446C233.802 492.998 233.355 493.446 232.802 493.446H230.963C230.41 493.446 229.963 492.998 229.963 492.446V461.67C229.963 461.118 230.41 460.67 230.963 460.67H232.802C233.355 460.67 233.802 461.118 233.802 461.67V474.673C233.802 475.063 233.271 475.177 233.11 474.822C233.067 474.727 233.067 474.618 233.112 474.524C233.806 473.064 234.849 471.921 236.243 471.095C237.683 470.241 239.363 469.814 241.283 469.814Z" fill="#A4A4A4"/>
<path d="M272.949 493.446C272.397 493.446 271.949 492.998 271.949 492.446V488.605C271.949 488.534 271.942 488.463 271.927 488.394L271.772 487.675C271.757 487.606 271.749 487.535 271.749 487.464V479.134C271.749 477.338 271.269 475.954 270.309 474.982C269.376 473.981 267.962 473.48 266.069 473.48C264.816 473.48 263.589 473.716 262.389 474.187C261.655 474.457 260.99 474.788 260.395 475.18C259.839 475.546 259.051 475.405 258.752 474.81L258.094 473.504C257.891 473.099 257.982 472.604 258.342 472.329C259.306 471.595 260.415 471.022 261.669 470.609C263.216 470.079 264.829 469.814 266.509 469.814C269.416 469.814 271.656 470.594 273.229 472.155C274.802 473.716 275.589 476.101 275.589 479.311V492.446C275.589 492.998 275.141 493.446 274.589 493.446H272.949ZM264.989 493.711C263.416 493.711 262.029 493.416 260.829 492.827C259.656 492.238 258.749 491.428 258.109 490.398C257.469 489.338 257.149 488.145 257.149 486.82C257.149 485.554 257.416 484.405 257.949 483.374C258.509 482.344 259.402 481.519 260.629 480.901C261.882 480.282 263.562 479.973 265.669 479.973H271.389C271.941 479.973 272.389 480.421 272.389 480.973V482.021C272.389 482.573 271.941 483.021 271.389 483.021H265.829C263.909 483.021 262.616 483.374 261.949 484.081C261.282 484.788 260.949 485.642 260.949 486.643C260.949 487.792 261.362 488.719 262.189 489.426C263.016 490.103 264.162 490.442 265.629 490.442C267.069 490.442 268.322 490.089 269.389 489.382C270.482 488.675 271.269 487.644 271.749 486.29L272.43 488.903C272.482 489.1 272.474 489.308 272.395 489.496C271.873 490.745 271.018 491.752 269.829 492.518C268.549 493.313 266.936 493.711 264.989 493.711Z" fill="#A4A4A4"/>
<path d="M285.295 493.446C284.743 493.446 284.295 492.998 284.295 492.446V471.035C284.295 470.482 284.743 470.035 285.295 470.035H287.336C287.689 470.035 287.975 470.321 287.975 470.674V474.817C287.975 475.027 287.673 475.061 287.627 474.856C287.619 474.823 287.621 474.788 287.633 474.756C288.222 473.161 289.203 471.94 290.575 471.095C291.728 470.385 293.101 469.97 294.696 469.85C295.247 469.809 295.695 470.261 295.695 470.814V473.439C295.695 473.69 295.466 473.878 295.215 473.878C295.082 473.878 294.949 473.878 294.815 473.878C292.762 473.878 291.135 474.555 289.935 475.909C288.735 477.264 288.135 479.222 288.135 481.784V492.446C288.135 492.998 287.688 493.446 287.135 493.446H285.295Z" fill="#A4A4A4"/>
<path d="M303.028 493.446C302.476 493.446 302.028 492.998 302.028 492.446V471.035C302.028 470.482 302.476 470.035 303.028 470.035H304.868C305.42 470.035 305.868 470.482 305.868 471.035V492.446C305.868 492.998 305.42 493.446 304.868 493.446H303.028ZM303.948 465.529C303.201 465.529 302.575 465.264 302.068 464.734C301.588 464.204 301.348 463.556 301.348 462.79C301.348 461.995 301.588 461.333 302.068 460.803C302.575 460.273 303.201 460.008 303.948 460.008C304.695 460.008 305.308 460.273 305.788 460.803C306.295 461.303 306.548 461.936 306.548 462.702C306.548 463.497 306.308 464.174 305.828 464.734C305.348 465.264 304.721 465.529 303.948 465.529Z" fill="#A4A4A4"/>
<path d="M328.96 493.446C328.408 493.446 327.96 492.998 327.96 492.446V488.605C327.96 488.534 327.952 488.463 327.938 488.394L327.782 487.675C327.768 487.606 327.76 487.535 327.76 487.464V479.134C327.76 477.338 327.28 475.954 326.32 474.982C325.387 473.981 323.973 473.48 322.08 473.48C320.827 473.48 319.6 473.716 318.4 474.187C317.665 474.457 317.001 474.788 316.406 475.18C315.85 475.546 315.062 475.405 314.763 474.81L314.105 473.504C313.902 473.099 313.993 472.604 314.353 472.329C315.317 471.595 316.426 471.022 317.68 470.609C319.227 470.079 320.84 469.814 322.52 469.814C325.427 469.814 327.667 470.594 329.24 472.155C330.813 473.716 331.6 476.101 331.6 479.311V492.446C331.6 492.998 331.152 493.446 330.6 493.446H328.96ZM321 493.711C319.427 493.711 318.04 493.416 316.84 492.827C315.667 492.238 314.76 491.428 314.12 490.398C313.48 489.338 313.16 488.145 313.16 486.82C313.16 485.554 313.427 484.405 313.96 483.374C314.52 482.344 315.413 481.519 316.64 480.901C317.893 480.282 319.573 479.973 321.68 479.973H327.4C327.952 479.973 328.4 480.421 328.4 480.973V482.021C328.4 482.573 327.952 483.021 327.4 483.021H321.84C319.92 483.021 318.627 483.374 317.96 484.081C317.293 484.788 316.96 485.642 316.96 486.643C316.96 487.792 317.373 488.719 318.2 489.426C319.027 490.103 320.173 490.442 321.64 490.442C323.08 490.442 324.333 490.089 325.4 489.382C326.493 488.675 327.28 487.644 327.76 486.29L328.441 488.903C328.492 489.1 328.484 489.308 328.406 489.496C327.884 490.745 327.029 491.752 325.84 492.518C324.56 493.313 322.947 493.711 321 493.711Z" fill="#A4A4A4"/>
<path d="M422 493.446C421.448 493.446 421 492.998 421 492.446V471.035C421 470.482 421.448 470.035 422 470.035H424.04C424.394 470.035 424.68 470.321 424.68 470.674V474.817C424.68 475.027 424.378 475.061 424.331 474.856C424.324 474.823 424.326 474.788 424.338 474.756C424.927 473.161 425.907 471.94 427.28 471.095C428.433 470.385 429.806 469.97 431.401 469.85C431.951 469.809 432.4 470.261 432.4 470.814V473.439C432.4 473.69 432.171 473.878 431.92 473.878C431.787 473.878 431.653 473.878 431.52 473.878C429.467 473.878 427.84 474.555 426.64 475.909C425.44 477.264 424.84 479.222 424.84 481.784V492.446C424.84 492.998 424.392 493.446 423.84 493.446H422Z" fill="#A4A4A4"/>
<path d="M448.017 493.711C445.884 493.711 443.991 493.195 442.337 492.165C440.684 491.134 439.377 489.72 438.417 487.924C437.457 486.098 436.977 484.037 436.977 481.74C436.977 479.414 437.457 477.352 438.417 475.556C439.377 473.76 440.684 472.361 442.337 471.36C443.991 470.329 445.884 469.814 448.017 469.814C450.124 469.814 452.004 470.329 453.658 471.36C455.338 472.361 456.644 473.76 457.578 475.556C458.538 477.323 459.018 479.384 459.018 481.74C459.018 484.067 458.538 486.128 457.578 487.924C456.644 489.72 455.338 491.134 453.658 492.165C452.004 493.195 450.124 493.711 448.017 493.711ZM448.017 490C449.377 490 450.591 489.662 451.657 488.984C452.751 488.307 453.604 487.35 454.217 486.113C454.831 484.847 455.138 483.389 455.138 481.74C455.138 480.062 454.831 478.619 454.217 477.411C453.604 476.174 452.751 475.217 451.657 474.54C450.591 473.863 449.377 473.524 448.017 473.524C446.657 473.524 445.444 473.863 444.378 474.54C443.311 475.217 442.457 476.174 441.817 477.411C441.177 478.619 440.858 480.062 440.858 481.74C440.858 483.389 441.177 484.847 441.817 486.113C442.457 487.35 443.311 488.307 444.378 488.984C445.444 489.662 446.657 490 448.017 490Z" fill="#A4A4A4"/>
<path d="M463.608 502.28C462.728 502.28 461.888 502.162 461.088 501.927C460.525 501.766 460.023 501.551 459.583 501.281C459.221 501.058 459.109 500.601 459.26 500.203L459.724 498.98C459.975 498.318 460.836 498.118 461.495 498.376C462.048 498.593 462.673 498.702 463.368 498.702C464.381 498.702 465.155 498.349 465.688 497.642C466.248 496.965 466.528 495.949 466.528 494.594V471.035C466.528 470.482 466.976 470.035 467.528 470.035H469.368C469.92 470.035 470.368 470.482 470.368 471.035V494.506C470.368 496.891 469.781 498.776 468.608 500.16C467.461 501.573 465.795 502.28 463.608 502.28ZM468.448 465.529C467.701 465.529 467.075 465.264 466.568 464.734C466.088 464.204 465.848 463.556 465.848 462.79C465.848 461.995 466.088 461.333 466.568 460.803C467.075 460.273 467.701 460.008 468.448 460.008C469.195 460.008 469.808 460.273 470.288 460.803C470.795 461.303 471.048 461.936 471.048 462.702C471.048 463.497 470.808 464.174 470.328 464.734C469.848 465.264 469.221 465.529 468.448 465.529Z" fill="#A4A4A4"/>
<path d="M489.135 493.711C486.869 493.711 484.869 493.195 483.135 492.165C481.429 491.134 480.095 489.72 479.135 487.924C478.202 486.128 477.735 484.067 477.735 481.74C477.735 479.414 478.189 477.352 479.095 475.556C480.029 473.76 481.295 472.361 482.895 471.36C484.522 470.329 486.349 469.814 488.375 469.814C490.429 469.814 492.242 470.314 493.815 471.316C495.389 472.317 496.615 473.73 497.495 475.556C498.402 477.352 498.855 479.458 498.855 481.873C498.855 482.049 498.842 482.255 498.815 482.491C498.815 482.871 498.491 483.154 498.111 483.154H481.735C481.183 483.154 480.735 482.706 480.735 482.154V481.106C480.735 480.553 481.183 480.106 481.735 480.106H495.592C495.95 480.106 496.093 480.569 495.796 480.771C495.552 480.937 495.219 480.758 495.205 480.463C495.145 479.243 494.869 478.137 494.375 477.146C493.789 475.968 492.975 475.055 491.935 474.408C490.922 473.73 489.735 473.392 488.375 473.392C487.042 473.392 485.855 473.73 484.815 474.408C483.775 475.055 482.962 475.983 482.375 477.19C481.789 478.368 481.495 479.723 481.495 481.254V481.961C481.495 483.522 481.815 484.92 482.455 486.157C483.122 487.365 484.042 488.307 485.215 488.984C486.389 489.662 487.735 490 489.255 490C490.509 490 491.642 489.765 492.655 489.293C493.33 488.988 493.948 488.584 494.51 488.08C494.988 487.651 495.75 487.657 496.143 488.165L497.021 489.299C497.3 489.66 497.304 490.168 496.996 490.505C496.129 491.454 495.096 492.199 493.895 492.739C492.482 493.387 490.895 493.711 489.135 493.711Z" fill="#A4A4A4"/>
<path d="M513.467 493.711C511.334 493.711 509.681 493.078 508.507 491.811C507.334 490.545 506.747 488.734 506.747 486.378V465.911C506.747 465.358 507.195 464.911 507.747 464.911H509.588C510.14 464.911 510.588 465.358 510.588 465.911V486.201C510.588 487.468 510.867 488.44 511.427 489.117C512.014 489.794 512.841 490.133 513.908 490.133C514.558 490.133 515.151 490.024 515.684 489.808C516.335 489.543 517.184 489.732 517.442 490.386L517.861 491.45C518.01 491.829 517.92 492.267 517.592 492.508C517.12 492.853 516.585 493.122 515.988 493.313C515.188 493.578 514.347 493.711 513.467 493.711ZM504.147 473.524C503.595 473.524 503.147 473.076 503.147 472.524V471.035C503.147 470.482 503.595 470.035 504.147 470.035H515.668C516.22 470.035 516.668 470.482 516.668 471.035V472.524C516.668 473.076 516.22 473.524 515.668 473.524H504.147Z" fill="#A4A4A4"/>
<path d="M533.127 493.711C530.994 493.711 529.1 493.195 527.447 492.165C525.794 491.134 524.487 489.72 523.527 487.924C522.567 486.098 522.087 484.037 522.087 481.74C522.087 479.414 522.567 477.352 523.527 475.556C524.487 473.76 525.794 472.361 527.447 471.36C529.1 470.329 530.994 469.814 533.127 469.814C535.234 469.814 537.114 470.329 538.767 471.36C540.447 472.361 541.754 473.76 542.687 475.556C543.647 477.323 544.127 479.384 544.127 481.74C544.127 484.067 543.647 486.128 542.687 487.924C541.754 489.72 540.447 491.134 538.767 492.165C537.114 493.195 535.234 493.711 533.127 493.711ZM533.127 490C534.487 490 535.7 489.662 536.767 488.984C537.86 488.307 538.714 487.35 539.327 486.113C539.94 484.847 540.247 483.389 540.247 481.74C540.247 480.062 539.94 478.619 539.327 477.411C538.714 476.174 537.86 475.217 536.767 474.54C535.7 473.863 534.487 473.524 533.127 473.524C531.767 473.524 530.554 473.863 529.487 474.54C528.42 475.217 527.567 476.174 526.927 477.411C526.287 478.619 525.967 480.062 525.967 481.74C525.967 483.389 526.287 484.847 526.927 486.113C527.567 487.35 528.42 488.307 529.487 488.984C530.554 489.662 531.767 490 533.127 490Z" fill="#A4A4A4"/>
<path d="M557.518 493.711C555.758 493.711 554.077 493.446 552.477 492.916C551.234 492.497 550.199 492.004 549.372 491.438C548.997 491.181 548.894 490.686 549.089 490.276L549.833 488.715C550.104 488.146 550.83 487.968 551.377 488.282C552.066 488.678 552.846 489.03 553.717 489.338C555.051 489.809 556.411 490.044 557.798 490.044C559.584 490.044 560.864 489.765 561.637 489.205C562.437 488.646 562.837 487.865 562.837 486.864C562.837 486.128 562.597 485.554 562.117 485.141C561.637 484.729 560.997 484.42 560.197 484.214C559.424 484.008 558.558 483.831 557.598 483.684C556.638 483.507 555.677 483.301 554.717 483.065C553.757 482.8 552.877 482.447 552.077 482.005C551.277 481.534 550.638 480.901 550.158 480.106C549.678 479.281 549.438 478.192 549.438 476.837C549.438 475.424 549.798 474.187 550.518 473.127C551.238 472.067 552.251 471.257 553.557 470.697C554.891 470.108 556.464 469.814 558.277 469.814C559.664 469.814 561.064 470.005 562.477 470.388C563.575 470.657 564.518 471.021 565.306 471.479C565.722 471.72 565.845 472.247 565.634 472.678L564.884 474.214C564.61 474.775 563.896 474.945 563.352 474.64C562.704 474.276 562.04 474.007 561.357 473.833C560.317 473.568 559.278 473.436 558.238 473.436C556.558 473.436 555.304 473.745 554.477 474.363C553.651 474.952 553.238 475.718 553.238 476.66C553.238 477.455 553.478 478.074 553.958 478.516C554.464 478.928 555.104 479.252 555.878 479.487C556.678 479.723 557.558 479.929 558.518 480.106C559.478 480.253 560.438 480.459 561.398 480.724C562.358 480.96 563.224 481.298 563.997 481.74C564.797 482.182 565.437 482.8 565.917 483.595C566.424 484.39 566.678 485.451 566.678 486.776C566.678 488.189 566.304 489.411 565.557 490.442C564.811 491.473 563.758 492.282 562.398 492.871C561.038 493.431 559.411 493.711 557.518 493.711Z" fill="#A4A4A4"/>
<path fill-rule="evenodd" clip-rule="evenodd" d="M395.8 459.136C395.248 459.136 394.8 459.584 394.8 460.136V492.136C394.8 492.689 395.248 493.136 395.8 493.136H397.871C398.423 493.136 398.871 492.689 398.871 492.136V480.248C398.871 479.696 399.319 479.248 399.871 479.248H405.913C408.41 479.248 410.54 478.85 412.304 478.053C414.068 477.229 415.425 476.075 416.375 474.591C417.325 473.08 417.8 471.28 417.8 469.192C417.8 467.104 417.325 465.305 416.375 463.793C415.425 462.282 414.068 461.128 412.304 460.332C410.54 459.535 408.41 459.136 405.913 459.136H395.8ZM411.694 473.973C410.364 475.099 408.397 475.663 405.791 475.663H399.871C399.319 475.663 398.871 475.215 398.871 474.663V463.722C398.871 463.17 399.319 462.722 399.871 462.722H405.791C408.397 462.722 410.364 463.285 411.694 464.412C413.051 465.538 413.729 467.132 413.729 469.192C413.729 471.253 413.051 472.846 411.694 473.973Z" fill="#A4A4A4"/>
<path d="M360.002 492.993C358.263 492.993 356.719 492.627 355.372 491.895C354.025 491.163 352.96 490.144 352.176 488.839C351.392 487.534 351 486.022 351 484.304C351 482.808 351.257 481.439 351.772 480.198C352.286 478.956 353.106 477.763 354.233 476.617C355.36 475.439 356.842 474.229 358.679 472.988C360.173 471.97 361.337 471.078 362.169 470.314C363.027 469.55 363.627 468.834 363.97 468.166C364.337 467.466 364.521 466.718 364.521 465.922C364.521 464.84 364.227 463.964 363.639 463.296C363.051 462.596 362.206 462.245 361.104 462.245C359.953 462.245 359.046 462.627 358.385 463.391C357.748 464.123 357.43 465.094 357.43 466.304C357.43 466.909 357.503 467.497 357.65 468.07C357.822 468.611 358.116 469.232 358.532 469.932C358.973 470.601 359.597 471.46 360.406 472.511L374 490.081L372.016 493.136L357.577 474.468C356.719 473.354 356.046 472.367 355.556 471.508C355.066 470.617 354.711 469.757 354.49 468.93C354.27 468.102 354.16 467.259 354.16 466.399C354.16 464.903 354.441 463.598 355.005 462.484C355.593 461.338 356.401 460.463 357.43 459.858C358.483 459.222 359.708 458.903 361.104 458.903C362.402 458.903 363.529 459.19 364.484 459.763C365.439 460.304 366.174 461.1 366.688 462.15C367.227 463.169 367.497 464.41 367.497 465.874C367.497 467.147 367.252 468.325 366.762 469.407C366.297 470.489 365.537 471.54 364.484 472.558C363.431 473.577 362.01 474.675 360.222 475.853C358.752 476.839 357.601 477.763 356.768 478.622C355.936 479.45 355.335 480.277 354.968 481.105C354.625 481.932 354.454 482.839 354.454 483.826C354.454 484.877 354.686 485.816 355.152 486.643C355.642 487.439 356.315 488.06 357.173 488.505C358.054 488.951 359.071 489.174 360.222 489.174C361.863 489.174 363.345 488.712 364.668 487.789C365.99 486.866 367.093 485.481 367.974 483.635C368.881 481.789 369.542 479.497 369.958 476.76L372.788 477.954C372.298 481.168 371.453 483.89 370.252 486.118C369.077 488.346 367.619 490.049 365.88 491.227C364.141 492.404 362.182 492.993 360.002 492.993Z" fill="#A4A4A4"/>
<path d="M95.7371 473.305C95.7371 473.581 95.9609 473.805 96.2371 473.805H109.056C109.332 473.805 109.556 474.029 109.556 474.305V477.434C109.556 477.71 109.332 477.934 109.056 477.934H96.2371C95.9609 477.934 95.7371 478.157 95.7371 478.434V488.411C95.7371 488.687 95.9609 488.911 96.2371 488.911H111.3C111.576 488.911 111.8 489.135 111.8 489.411V492.636C111.8 492.913 111.576 493.136 111.3 493.136H92.3C92.0239 493.136 91.8 492.913 91.8 492.636V459.636C91.8 459.36 92.0239 459.136 92.3 459.136H110.749C111.025 459.136 111.249 459.36 111.249 459.636V462.862C111.249 463.138 111.025 463.362 110.749 463.362H96.2371C95.9609 463.362 95.7371 463.586 95.7371 463.862V473.305Z" fill="#A4A4A4"/>
<rect x="39" y="436" width="567" height="5" rx="2.5" fill="url(#paint8_radial_76_2)" fill-opacity="0.81"/>
<rect x="74" y="298" width="5" height="217" fill="url(#paint9_radial_76_2)" fill-opacity="0.81"/>
<defs>
<radialGradient id="paint0_radial_76_2" cx="0" cy="0" r="1" gradientUnits="userSpaceOnUse" gradientTransform="translate(315.5 53) rotate(102.572) scale(142.415 425.31)">
<stop stop-color="#FFEFD4"/>
<stop offset="0.605769" stop-color="#CB9E69"/>
<stop offset="1" stop-color="#955B29"/>
</radialGradient>
<radialGradient id="paint1_radial_76_2" cx="0" cy="0" r="1" gradientUnits="userSpaceOnUse" gradientTransform="translate(315.5 53) rotate(102.572) scale(142.415 425.31)">
<stop stop-color="#FCDAA3"/>
<stop offset="0.384615" stop-color="#CB9E69"/>
<stop offset="1" stop-color="#955B29"/>
</radialGradient>
<radialGradient id="paint2_radial_76_2" cx="0" cy="0" r="1" gradientUnits="userSpaceOnUse" gradientTransform="translate(378.5 22) rotate(33.2952) scale(221.331 214.04)">
<stop stop-color="#FFEFD4"/>
<stop offset="0.423564" stop-color="#CB9E69"/>
<stop offset="1" stop-color="#955B29"/>
</radialGradient>
<radialGradient id="paint3_radial_76_2" cx="0" cy="0" r="1" gradientTransform="matrix(-31.0282 153.353 -415.489 -102.139 420.112 33.9946)" gradientUnits="userSpaceOnUse">
<stop stop-color="#FCDAA3"/>
<stop offset="0.384615" stop-color="#CB9E69"/>
<stop offset="1" stop-color="#955B29"/>
</radialGradient>
<radialGradient id="paint4_radial_76_2" cx="0" cy="0" r="1" gradientTransform="matrix(-1.46679 4.53261 -19.6413 -3.01887 329.833 236.946)" gradientUnits="userSpaceOnUse">
<stop stop-color="#E68B3B"/>
<stop offset="0.509615" stop-color="#FBAC68"/>
<stop offset="1" stop-color="#FEFFF5"/>
</radialGradient>
<radialGradient id="paint5_radial_76_2" cx="0" cy="0" r="1" gradientTransform="matrix(-1.35396 4.53261 -18.1304 -3.01887 329.692 244.946)" gradientUnits="userSpaceOnUse">
<stop stop-color="#E68B3B"/>
<stop offset="0.509615" stop-color="#FBAC68"/>
<stop offset="1" stop-color="#FEFFF5"/>
</radialGradient>
<radialGradient id="paint6_radial_76_2" cx="0" cy="0" r="1" gradientTransform="matrix(-1.24113 6.79891 -16.6196 -4.52831 329.551 253.418)" gradientUnits="userSpaceOnUse">
<stop stop-color="#E68B3B"/>
<stop offset="0.509615" stop-color="#FBAC68"/>
<stop offset="1" stop-color="#FEFFF5"/>
</radialGradient>
<radialGradient id="paint7_radial_76_2" cx="0" cy="0" r="1" gradientUnits="userSpaceOnUse" gradientTransform="translate(329 183.5) rotate(70.8444) scale(50.2842 44.8827)">
<stop stop-color="white"/>
<stop offset="0.294917" stop-color="#E2C294"/>
<stop offset="1" stop-color="#E9790A"/>
</radialGradient>
<radialGradient id="paint8_radial_76_2" cx="0" cy="0" r="1" gradientTransform="matrix(-31.9872 3.77717 -428.332 -2.51573 362.484 436.788)" gradientUnits="userSpaceOnUse">
<stop stop-color="#FFEFD4"/>
<stop offset="0.605769" stop-color="#CB9E69"/>
<stop offset="1" stop-color="#955B29"/>
</radialGradient>
<radialGradient id="paint9_radial_76_2" cx="0" cy="0" r="1" gradientTransform="matrix(-0.282074 163.929 -3.77717 -109.183 76.8526 332.201)" gradientUnits="userSpaceOnUse">
<stop stop-color="#FFEFD4"/>
<stop offset="0.605769" stop-color="#CB9E69"/>
<stop offset="1" stop-color="#955B29"/>
</radialGradient>
</defs>
</svg>
