<svg width="581" height="578" viewBox="0 0 581 578" fill="none" xmlns="http://www.w3.org/2000/svg">
<rect x="2" width="578" height="578" rx="28" fill="black"/>
<path d="M289.646 62.4328L10.4918 267.3C9.49631 268.031 10.4496 269.563 11.545 268.994L289.776 124.239C290.064 124.089 290.407 124.089 290.696 124.238L569.461 268.047C570.558 268.613 571.506 267.078 570.508 266.35L290.827 62.431C290.475 62.1743 289.997 62.1751 289.646 62.4328Z" fill="url(#paint0_radial_76_178)" fill-opacity="0.81"/>
<path d="M289.055 61.627C289.757 61.1116 290.712 61.1098 291.416 61.623L571.098 265.542C573.093 266.997 571.196 270.067 569.002 268.936L290.237 125.126L12.0068 269.881C9.81608 271.021 7.90931 267.955 9.90039 266.494L289.055 61.627Z" stroke="url(#paint1_radial_76_178)" stroke-opacity="0.75" stroke-width="2"/>
<path d="M562 221L342.18 19.6211C341.797 19.27 341.209 19.271 340.827 19.6235L313.99 44.388L311.803 46.4067C311.371 46.8048 311.374 47.4873 311.809 47.8819L329.227 63.6989C329.584 64.0224 330.12 64.0463 330.503 63.7558L340.901 55.8815C341.257 55.612 341.749 55.611 342.106 55.879L562 221Z" fill="url(#paint2_radial_76_178)" fill-opacity="0.81"/>
<path d="M340.148 18.8887C340.912 18.1836 342.09 18.1815 342.856 18.8838L562.676 220.263L561.399 221.8L341.505 56.6787L331.107 64.5527C330.34 65.1337 329.267 65.0864 328.555 64.4395L311.137 48.6221C310.267 47.8327 310.262 46.4682 311.125 45.6719L313.312 43.6533L340.148 18.8887Z" stroke="url(#paint3_radial_76_178)" stroke-opacity="0.75" stroke-width="2"/>
<rect x="239.96" y="465.94" width="97.8218" height="22.5743" rx="1" fill="url(#paint4_radial_76_178)"/>
<rect x="243.723" y="496.04" width="90.297" height="22.5743" rx="1" fill="url(#paint5_radial_76_178)"/>
<path d="M247.509 527.141C247.483 526.589 247.933 526.139 248.485 526.139H329.257C329.81 526.139 330.26 526.589 330.23 527.14C329.23 545.482 301.029 560 286.802 560C272.575 560 248.367 545.482 247.509 527.141Z" fill="url(#paint6_radial_76_178)"/>
<path d="M232.436 456.297C232.436 458.506 234.226 460.297 236.436 460.297H341.307C343.516 460.297 345.307 458.506 345.307 456.297V410.927C345.307 410.007 345.624 409.115 346.205 408.402L380.524 366.238C396.16 346.628 405.505 321.782 405.505 294.752C405.505 231.376 354.128 180 290.752 180C227.376 180 176 231.376 176 294.752C176 321.782 185.345 346.628 200.98 366.238L231.671 408.453C232.168 409.137 232.436 409.96 232.436 410.805V456.297Z" fill="url(#paint7_radial_76_178)" fill-opacity="0.68"/>
<defs>
<radialGradient id="paint0_radial_76_178" cx="0" cy="0" r="1" gradientTransform="matrix(-32.7771 139 -438.908 -92.5788 331.471 120)" gradientUnits="userSpaceOnUse">
<stop stop-color="#FFEFD4"/>
<stop offset="0.605769" stop-color="#CB9E69"/>
<stop offset="1" stop-color="#955B29"/>
</radialGradient>
<radialGradient id="paint1_radial_76_178" cx="0" cy="0" r="1" gradientTransform="matrix(-32.7771 139 -438.908 -92.5788 331.471 120)" gradientUnits="userSpaceOnUse">
<stop stop-color="#FCDAA3"/>
<stop offset="0.384615" stop-color="#CB9E69"/>
<stop offset="1" stop-color="#955B29"/>
</radialGradient>
<radialGradient id="paint2_radial_76_178" cx="0" cy="0" r="1" gradientTransform="matrix(148.2 121.562 -94.1252 178.998 339.438 39.0102)" gradientUnits="userSpaceOnUse">
<stop stop-color="#FFEFD4"/>
<stop offset="0.423564" stop-color="#CB9E69"/>
<stop offset="1" stop-color="#955B29"/>
</radialGradient>
<radialGradient id="paint3_radial_76_178" cx="0" cy="0" r="1" gradientTransform="matrix(-24.8561 153.432 -332.84 -102.191 372.773 51.0109)" gradientUnits="userSpaceOnUse">
<stop stop-color="#FCDAA3"/>
<stop offset="0.384615" stop-color="#CB9E69"/>
<stop offset="1" stop-color="#955B29"/>
</radialGradient>
<radialGradient id="paint4_radial_76_178" cx="0" cy="0" r="1" gradientTransform="matrix(-5.5186 17.0534 -73.898 -11.3581 295.769 469.498)" gradientUnits="userSpaceOnUse">
<stop stop-color="#E68B3B"/>
<stop offset="0.509615" stop-color="#FBAC68"/>
<stop offset="1" stop-color="#FEFFF5"/>
</radialGradient>
<radialGradient id="paint5_radial_76_178" cx="0" cy="0" r="1" gradientTransform="matrix(-5.0941 17.0534 -68.2135 -11.3581 295.239 499.597)" gradientUnits="userSpaceOnUse">
<stop stop-color="#E68B3B"/>
<stop offset="0.509615" stop-color="#FBAC68"/>
<stop offset="1" stop-color="#FEFFF5"/>
</radialGradient>
<radialGradient id="paint6_radial_76_178" cx="0" cy="0" r="1" gradientTransform="matrix(-4.66959 25.5801 -62.529 -17.0372 294.708 531.475)" gradientUnits="userSpaceOnUse">
<stop stop-color="#E68B3B"/>
<stop offset="0.509615" stop-color="#FBAC68"/>
<stop offset="1" stop-color="#FEFFF5"/>
</radialGradient>
<radialGradient id="paint7_radial_76_178" cx="0" cy="0" r="1" gradientUnits="userSpaceOnUse" gradientTransform="translate(291.207 180) rotate(79.5246) scale(284.742 257.337)">
<stop stop-color="white"/>
<stop offset="1" stop-color="#E9790A"/>
</radialGradient>
</defs>
</svg>
