<svg width="296" height="390" viewBox="0 0 296 390" fill="none" xmlns="http://www.w3.org/2000/svg">
<path d="M7 5.5H227.204V56.5C227.204 63.4035 232.801 68.9998 239.704 69H290.5V383C290.5 383.828 289.828 384.5 289 384.5H7C6.17158 384.5 5.5 383.828 5.5 383V7C5.50001 6.17157 6.17159 5.5 7 5.5ZM238.204 13.3086L282.752 58H239.704C238.876 57.9998 238.204 57.3283 238.204 56.5V13.3086Z" stroke="black" stroke-width="11"/>
<circle cx="148" cy="131" r="72.5" stroke="black" stroke-width="9"/>
<path d="M124.929 136.17L153.114 90.0338C153.641 89.1719 154.968 89.5451 154.968 90.5551V121.987C154.968 122.539 155.415 122.987 155.968 122.987H170.344C171.097 122.987 171.58 123.786 171.23 124.452L146.014 172.414C145.528 173.339 144.129 172.993 144.129 171.949V138.691C144.129 138.139 143.681 137.691 143.129 137.691H125.783C125.002 137.691 124.522 136.836 124.929 136.17Z" stroke="black" stroke-width="7"/>
<rect x="86" y="252" width="173" height="12" rx="2" fill="black"/>
<rect x="36" y="312" width="223" height="12" rx="2" fill="black"/>
<rect x="36" y="282" width="223" height="12" rx="2" fill="black"/>
</svg>
