<svg width="594" height="594" viewBox="0 0 594 594" fill="none" xmlns="http://www.w3.org/2000/svg">
<g filter="url(#filter0_ddi_140_12)">
<path d="M413.173 48.6786C407.272 50.7787 400.77 57.379 398.77 63.4793C397.37 67.4794 397.07 72.7797 397.07 94.9806V121.682L389.368 122.182C380.066 122.782 374.865 125.082 369.864 130.982C359.562 142.883 363.763 162.883 377.766 169.284C379.966 170.284 380.066 170.684 380.066 183.884C380.066 214.586 385.367 231.086 400.37 247.587C406.572 254.387 417.774 262.488 425.375 265.588L430.076 267.488V314.09V360.692L427.776 364.092C424.875 368.392 418.674 371.992 414.073 371.992C408.972 371.992 401.971 368.192 399.57 363.992C397.77 360.792 397.57 358.192 397.07 334.991C396.47 309.79 396.47 309.39 393.469 300.889C385.767 278.988 367.964 262.688 345.86 257.388L339.258 255.787L338.858 238.087L338.558 220.486L335.257 213.686C328.056 199.085 310.953 192.885 297.15 199.985L292.849 202.085L287.748 197.185C284.847 194.585 280.446 191.485 277.846 190.585C271.545 188.185 261.243 188.685 255.041 191.685L250.641 193.985L247.74 190.485C244.039 185.984 237.838 182.384 231.337 180.984C224.335 179.484 216.534 181.084 210.233 185.384L205.332 188.585L201.931 186.284C193.129 180.084 182.527 178.884 173.425 182.884C162.123 187.785 156.022 197.785 155.222 212.486L154.721 221.586L148.32 222.786C129.816 226.286 115.814 241.287 114.113 259.288L113.513 266.288L104.711 271.588C79.7065 286.689 62.203 308.39 53.0012 335.791C47.1 353.392 47 355.192 47 448.896V534.199L49.2004 538.2C50.5007 540.4 53.3013 543.3 55.6017 544.6C59.3024 546.8 60.8027 547 72.005 547C82.8071 547 84.7075 546.7 88.2082 544.8C90.3086 543.6 93.1092 541 94.3094 539L96.5099 535.499L97.01 447.496L97.5101 359.492L100.611 350.892C103.411 342.891 111.513 328.991 113.213 328.991C113.613 328.991 114.013 330.991 114.013 333.291C114.013 340.091 117.514 352.292 122.015 360.892C124.916 366.492 129.116 371.992 137.118 380.593C151.321 395.793 161.223 408.994 165.524 418.194C171.525 431.395 172.025 435.995 172.025 483.297C172.025 531.399 172.125 532.199 179.526 539.5C187.028 547.1 186.328 547 247.04 547C305.952 547 305.952 547 313.253 541C315.253 539.3 317.954 535.899 319.254 533.299L321.555 528.499L322.155 465.496C322.755 394.593 322.755 395.393 331.157 370.992C336.958 353.892 338.058 347.591 338.758 326.691L339.358 307.89L341.859 310.19C346.56 314.59 347.06 317.39 347.06 339.991C347.06 364.892 348.26 372.492 354.261 384.993C357.562 391.893 359.962 395.093 366.964 402.094C373.965 409.094 377.166 411.494 384.067 414.794C403.271 423.995 423.475 424.295 441.779 415.594C456.081 408.794 466.684 398.394 473.585 384.493C479.886 371.692 480.086 369.792 480.086 316.29V268.088L487.388 264.588C507.692 254.887 522.595 236.587 528.096 214.586C529.696 208.185 530.096 203.385 530.096 188.985V171.284L534.697 168.384C551.2 157.983 551.1 135.082 534.397 125.282C530.796 123.182 528.196 122.582 521.995 122.182L514.193 121.782L513.893 93.5806C513.593 61.5792 513.393 60.9792 504.691 53.2788C497.09 46.5785 487.488 45.1785 478.586 49.3787C473.385 51.6788 467.884 57.179 465.783 61.8792C464.983 63.5793 464.383 74.3797 464.083 92.9805L463.583 121.482L455.381 121.782L447.08 122.082V95.1806C447.08 64.2793 446.58 61.3792 439.578 54.4789C432.677 47.4786 422.675 45.3785 413.173 48.6786ZM427.776 66.1794C430.076 68.2795 430.076 68.3795 430.076 95.1806V121.982H422.075H414.073V95.2806C414.073 69.2795 414.173 68.5795 416.274 66.2794C419.074 63.2793 424.575 63.1793 427.776 66.1794ZM494.589 66.4794L497.09 68.8795V95.4806V122.082L488.888 121.782L480.586 121.482L480.286 97.9807C480.086 85.0802 480.286 72.9797 480.586 71.1796C481.887 64.1793 489.688 61.5792 494.589 66.4794ZM527.796 141.183C531.096 144.283 530.996 150.183 527.496 152.883C524.895 154.983 524.095 154.983 455.181 154.983C386.468 154.983 385.367 154.983 383.267 152.983C379.266 149.183 379.566 143.683 383.967 140.283C385.167 139.382 402.071 139.082 455.481 138.982H525.495L527.796 141.183ZM513.893 189.685C513.493 204.085 512.993 208.685 511.292 213.986C504.991 233.387 488.688 248.687 469.084 253.587C460.382 255.787 444.879 255.087 436.678 252.087C419.574 245.987 406.372 232.886 400.37 215.886C397.97 209.185 397.67 206.785 397.27 190.185L396.87 171.984H455.581H514.293L513.893 189.685ZM190.129 198.485C193.729 200.385 197.03 205.485 197.03 209.285C197.03 212.886 201.931 217.986 205.432 217.986C209.432 217.986 212.933 214.186 213.933 208.485C215.834 198.285 225.836 193.585 233.137 199.685C237.338 203.285 239.038 207.585 239.038 214.986C239.038 220.086 239.438 221.486 241.539 223.486C246.54 228.586 253.441 225.786 255.141 217.986C256.442 212.286 258.342 209.385 262.343 206.985C266.244 204.585 268.244 204.485 272.745 206.685C277.946 209.085 280.046 213.186 280.046 220.786C280.046 230.386 282.547 233.987 289.048 233.987C293.349 233.987 296.15 231.086 297.15 225.486C299.45 212.486 314.653 209.585 320.554 220.986C321.855 223.486 322.055 232.586 322.055 281.189C322.055 315.69 321.655 340.991 321.055 344.791C320.454 348.291 317.954 357.592 315.453 365.292C305.852 395.193 305.051 403.394 305.051 471.797V525.399L302.851 527.699L300.751 529.999H247.14H193.629L191.329 527.799L189.028 525.699V484.997C189.028 462.696 188.528 440.795 188.028 436.295C185.328 414.794 176.426 398.994 151.221 371.292C134.517 352.992 131.317 345.991 130.317 326.29L129.716 315.09L133.117 313.09C136.618 310.99 145.92 307.69 151.821 306.49L155.022 305.79V314.49C155.022 326.09 157.222 329.891 163.823 329.991C166.024 329.991 167.924 329.191 169.524 327.491L172.025 325.09V266.488C172.025 201.885 171.925 202.885 178.226 198.985C182.227 196.585 186.028 196.485 190.129 198.485ZM155.022 247.487V255.987H152.321C150.721 255.987 145.52 256.888 140.519 257.888C135.618 258.888 131.317 259.588 131.217 259.388C130.417 258.688 133.317 251.887 136.018 248.187C139.118 243.887 147.72 238.987 152.221 238.987H155.022V247.487ZM464.083 314.19C464.083 338.291 463.583 359.292 463.083 362.992C459.982 381.993 444.979 398.694 426.576 403.494C419.774 405.194 408.672 405.394 402.071 403.894C389.868 401.094 376.666 391.193 370.264 379.893C364.963 370.592 364.063 364.992 364.063 341.791C364.063 320.39 363.263 313.29 359.862 306.69C357.062 301.089 350.26 294.689 344.259 291.989L339.058 289.589V281.189V272.788L342.359 273.488C353.061 275.888 367.064 286.089 372.765 295.789C379.066 306.59 379.466 308.39 380.066 336.491C380.566 362.292 380.566 362.492 383.367 368.492C384.867 371.792 387.868 376.193 389.868 378.393C394.269 382.993 403.471 387.593 410.072 388.493C420.774 389.993 434.977 383.393 441.078 374.193C446.88 365.392 447.08 363.892 447.08 315.79V271.988H455.581H464.083V314.19ZM155.022 280.989V288.889L151.321 289.489C117.914 294.989 92.109 318.49 82.7071 351.892C80.6067 359.292 80.6067 361.192 80.2066 444.696L79.9066 529.999H71.905H63.9034L64.2034 442.195L64.5035 354.492L66.8039 346.491C69.7045 336.491 75.4057 324.19 81.0068 315.89C90.5087 301.889 107.112 287.889 122.815 280.789C130.617 277.288 145.82 273.088 151.321 272.988H155.022V280.989Z" fill="#E8E4E0"/>
</g>
<defs>
<filter id="filter0_ddi_140_12" x="0" y="0" width="594" height="594" filterUnits="userSpaceOnUse" color-interpolation-filters="sRGB">
<feFlood flood-opacity="0" result="BackgroundImageFix"/>
<feColorMatrix in="SourceAlpha" type="matrix" values="0 0 0 0 0 0 0 0 0 0 0 0 0 0 0 0 0 0 127 0" result="hardAlpha"/>
<feMorphology radius="5" operator="erode" in="SourceAlpha" result="effect1_dropShadow_140_12"/>
<feOffset/>
<feGaussianBlur stdDeviation="26"/>
<feComposite in2="hardAlpha" operator="out"/>
<feColorMatrix type="matrix" values="0 0 0 0 0.921569 0 0 0 0 0.6 0 0 0 0 0.282353 0 0 0 1 0"/>
<feBlend mode="normal" in2="BackgroundImageFix" result="effect1_dropShadow_140_12"/>
<feColorMatrix in="SourceAlpha" type="matrix" values="0 0 0 0 0 0 0 0 0 0 0 0 0 0 0 0 0 0 127 0" result="hardAlpha"/>
<feMorphology radius="18" operator="erode" in="SourceAlpha" result="effect2_dropShadow_140_12"/>
<feOffset dy="-8"/>
<feGaussianBlur stdDeviation="11.55"/>
<feComposite in2="hardAlpha" operator="out"/>
<feColorMatrix type="matrix" values="0 0 0 0 0.93676 0 0 0 0 0.964867 0 0 0 0 0.121672 0 0 0 0.19 0"/>
<feBlend mode="normal" in2="effect1_dropShadow_140_12" result="effect2_dropShadow_140_12"/>
<feBlend mode="normal" in="SourceGraphic" in2="effect2_dropShadow_140_12" result="shape"/>
<feColorMatrix in="SourceAlpha" type="matrix" values="0 0 0 0 0 0 0 0 0 0 0 0 0 0 0 0 0 0 127 0" result="hardAlpha"/>
<feMorphology radius="2" operator="erode" in="SourceAlpha" result="effect3_innerShadow_140_12"/>
<feOffset/>
<feGaussianBlur stdDeviation="13.95"/>
<feComposite in2="hardAlpha" operator="arithmetic" k2="-1" k3="1"/>
<feColorMatrix type="matrix" values="0 0 0 0 0.921569 0 0 0 0 0.6 0 0 0 0 0.282353 0 0 0 0.32 0"/>
<feBlend mode="normal" in2="shape" result="effect3_innerShadow_140_12"/>
</filter>
</defs>
</svg>
