<svg width="594" height="702" viewBox="0 0 594 702" fill="none" xmlns="http://www.w3.org/2000/svg">
<g filter="url(#filter0_ddi_140_25)">
<path d="M228.545 50.6132C218.139 54.8045 210.045 62.4646 204.987 72.8707C201.518 79.6636 201.085 82.6987 200.507 99.6086L199.928 118.542L190.245 125.046C176.948 134.007 156.281 155.252 146.597 169.85C124.051 203.525 114.656 234.165 114.512 273.188C114.512 298.481 117.691 316.98 125.93 338.082C136.769 365.976 147.031 381.007 175.648 410.491C203.975 439.686 213.225 454.139 222.62 483.623C227.534 499.087 230.424 521.778 227.967 525.102C221.752 533.774 220.452 536.665 220.452 542.735C220.452 546.348 221.463 551.118 222.62 553.286C224.498 556.899 224.498 557.911 222.62 561.524C219.873 566.871 219.873 576.988 222.62 582.191C224.498 585.805 224.498 586.816 222.62 590.43C219.873 595.777 219.873 606.761 222.62 612.109C223.776 614.421 227.244 618.179 230.135 620.347C234.615 623.816 236.928 624.539 246.756 624.972L258.029 625.406V636.245C258.029 645.64 258.463 647.374 261.642 650.409L265.111 654.022H297.052H328.993L332.462 650.409C335.641 647.374 336.075 645.64 336.075 636.245V625.406L347.348 624.972C357.176 624.539 359.489 623.816 363.969 620.347C366.86 618.179 370.328 614.421 371.485 612.109C374.231 606.761 374.231 595.777 371.485 590.43C369.606 586.816 369.606 585.805 371.485 582.191C374.231 576.988 374.231 566.871 371.485 561.524C369.606 557.911 369.606 556.899 371.485 553.286C374.086 548.516 374.375 538.11 372.063 533.63C371.195 531.895 369.028 529.005 367.438 527.27C364.836 524.38 364.692 522.79 365.559 513.54C366.715 499.81 371.051 482.033 376.543 468.013C383.914 448.647 395.621 432.604 419.468 408.756C447.94 380.573 460.948 360.628 471.065 329.554C483.061 293.422 482.483 249.052 469.62 212.919C464.417 198.322 452.999 176.643 444.038 164.791C434.21 151.35 415.566 133.139 403.859 125.046L394.176 118.542L393.598 99.6086C393.019 82.6987 392.586 79.6636 389.117 72.5816C384.059 62.3201 374.809 53.9374 364.403 50.0351C356.454 47.1445 353.997 47 296.618 47H237.072L228.545 50.6132ZM355.153 67.2341C358.188 68.1012 362.524 70.4137 364.981 72.5816C373.652 79.8081 373.652 79.3745 373.652 138.053C373.652 198.033 373.652 198.177 363.825 205.693L358.766 209.595H297.052H235.338L230.28 205.693C220.452 198.177 220.452 198.033 220.452 138.053C220.452 80.3862 220.452 80.3862 228.112 73.3043C235.627 66.3669 239.096 65.9333 296.329 65.7888C328.848 65.7888 351.973 66.3669 355.153 67.2341ZM203.108 200.201C208.456 214.22 219.873 224.626 234.326 228.384C246.611 231.564 347.493 231.564 359.778 228.384C375.965 224.193 387.527 212.63 391.719 196.443C393.164 190.662 393.887 180.834 393.887 165.225C393.887 152.651 394.32 142.389 395.043 142.389C395.621 142.389 401.113 147.014 407.183 152.506C422.07 166.092 434.21 182.713 443.749 202.224C454.589 224.048 459.069 241.825 459.936 266.251C460.948 289.52 458.925 304.262 452.276 324.496C442.737 352.968 430.163 372.191 405.882 395.315C381.457 418.44 368.883 435.783 358.621 460.787C352.551 475.24 348.071 493.162 346.481 508.337L345.469 518.888H336.075H326.681L325.958 492.728C325.091 462.521 324.802 461.799 314.251 461.799H307.314L306.88 411.213C306.446 355.281 306.446 355.859 297.052 355.859C287.658 355.859 287.658 355.281 287.224 411.213L286.79 461.799H279.853C269.302 461.799 269.013 462.521 268.146 492.728L267.424 518.888H258.029H248.635L247.479 508.771C245.889 493.74 241.408 476.252 235.483 462.232C225.077 436.94 215.827 423.932 188.655 396.038C155.269 361.784 142.261 338.226 135.758 300.649C132.578 283.161 133.734 251.942 137.925 235.032C146.453 201.502 166.542 168.838 191.112 148.893L199.495 141.956L200.362 168.549C200.94 185.025 201.952 197.021 203.108 200.201ZM306.88 499.665L306.446 518.888H297.052H287.658L287.224 499.665L286.79 480.587H297.052H307.314L306.88 499.665ZM353.563 540.712C354.864 542.301 355.008 543.602 353.852 545.337C352.551 547.504 347.059 547.794 297.052 547.794C247.045 547.794 241.553 547.504 240.252 545.337C239.096 543.602 239.24 542.301 240.541 540.712C242.275 538.688 249.068 538.399 297.052 538.399C345.036 538.399 351.829 538.688 353.563 540.712ZM353.997 570.629C355.297 572.797 355.008 573.664 352.84 575.399C350.528 577.133 340.989 577.422 297.341 577.422C245.455 577.422 239.24 576.844 239.24 572.653C239.24 567.449 241.697 567.305 297.63 567.594C348.649 568.028 352.551 568.172 353.997 570.629ZM353.563 598.523C354.864 600.113 355.008 601.414 353.852 603.148C352.551 605.316 347.059 605.605 297.052 605.605C247.045 605.605 241.553 605.316 240.252 603.148C239.096 601.414 239.24 600.113 240.541 598.523C242.275 596.5 249.068 596.211 297.052 596.211C345.036 596.211 351.829 596.5 353.563 598.523ZM315.841 630.175V635.234H297.052H278.263V630.175V625.117H297.052H315.841V630.175Z" fill="#E8E4E0"/>
<path d="M273.927 89.347C257.018 95.1282 243.143 105.101 235.049 117.386C229.702 125.479 229.557 127.069 234.182 131.55C239.674 137.186 242.854 136.174 253.404 125.19C260.486 117.819 265.834 113.772 273.205 110.304C282.455 105.968 284.478 105.534 297.197 105.534C310.204 105.534 311.505 105.823 321.911 110.882C332.028 115.94 336.075 119.409 347.204 132.85C350.239 136.608 356.454 137.909 360.067 135.452C364.258 132.706 365.125 128.081 362.524 122.589C356.165 109.003 336.22 93.9719 317.431 88.3353C305.579 84.8666 285.634 85.3002 273.927 89.347Z" fill="#E8E4E0"/>
<path d="M289.103 124.901C281.01 126.925 274.072 131.116 268.869 136.897C259.908 146.581 258.174 156.409 264.533 160.6C269.592 163.924 274.65 162.19 278.842 155.541C284.478 146.87 289.103 143.835 297.486 143.835C303.845 143.835 305.146 144.413 309.915 149.327C312.806 152.362 316.275 156.698 317.72 158.721C320.611 163.201 325.235 163.78 330.005 160.311C335.786 156.264 333.907 146.292 325.235 136.753C316.564 127.214 300.521 121.866 289.103 124.901Z" fill="#E8E4E0"/>
<path d="M290.837 174.908C285.201 180.4 287.369 189.072 294.884 190.951C299.22 191.963 305.146 188.639 306.446 184.158C308.759 176.787 296.329 169.272 290.837 174.908Z" fill="#E8E4E0"/>
<path d="M242.564 290.821C239.24 293.711 214.67 326.375 211.924 331.433C209.467 335.914 210.912 341.261 215.393 344.152C221.174 347.91 225.654 344.875 237.65 328.687C243.432 320.883 248.635 314.379 249.213 314.523C249.646 314.523 254.849 321.027 260.631 328.976C276.24 350.367 281.154 350.8 290.837 331C293.872 325.074 296.618 320.16 297.052 320.16C297.485 320.16 300.231 325.074 303.267 331C309.337 343.429 314.106 347.476 319.454 345.019C321.477 344.152 327.692 336.925 333.473 328.976C339.254 321.027 344.457 314.523 344.891 314.523C345.469 314.379 350.528 320.594 356.164 328.109C368.305 344.296 372.207 347.332 377.41 345.019C382.324 342.707 384.637 337.07 382.613 332.445C381.746 330.566 374.375 320.16 366.281 309.32C346.192 282.582 344.746 282.438 328.848 303.25L318.153 317.414L312.516 306.141C305.724 292.41 302.11 288.364 297.052 288.364C291.993 288.364 288.38 292.41 281.587 306.141L275.951 317.414L265.255 303.25C256.15 291.399 253.693 289.086 249.935 288.653C247.189 288.364 244.443 289.231 242.564 290.821Z" fill="#E8E4E0"/>
<path d="M68.985 223.759C63.9265 229.107 64.9382 233.009 73.4654 241.681C82.2817 250.353 86.473 251.364 91.5316 246.017C96.5901 240.669 95.5784 236.767 87.0512 228.095C78.2349 219.423 74.0435 218.412 68.985 223.759Z" fill="#E8E4E0"/>
<path d="M507.053 228.095C498.381 236.911 497.37 241.103 502.717 246.161C508.065 251.22 511.967 250.208 520.639 241.681C529.311 232.864 530.322 228.673 524.975 223.615C519.627 218.556 515.725 219.568 507.053 228.095Z" fill="#E8E4E0"/>
<path d="M49.4736 262.059C45.8604 265.962 46.294 273.333 50.1963 275.934C52.6533 277.668 57.4227 278.247 70.864 278.247C87.3403 278.247 88.641 278.102 91.5316 274.922C95.4339 270.731 95.5784 266.106 91.8207 262.348C89.2192 259.747 87.0512 259.458 70.4304 259.458C54.2431 259.458 51.497 259.747 49.4736 262.059Z" fill="#E8E4E0"/>
<path d="M502.284 262.348C498.382 266.251 498.671 271.309 502.718 275.067C505.753 277.958 507.632 278.247 523.674 278.247C539.428 278.247 541.596 277.958 544.197 275.356C547.811 271.743 547.955 264.95 544.486 261.915C542.319 259.891 538.561 259.458 523.53 259.458C507.053 259.458 504.885 259.747 502.284 262.348Z" fill="#E8E4E0"/>
<path d="M73.1767 296.168C69.1298 300.504 65.8057 305.418 65.8057 307.152C65.8057 310.332 71.7314 317.269 74.4774 317.269C80.6922 317.269 94.7115 303.539 94.7115 297.469C94.7115 292.844 89.7975 288.364 84.739 288.364C81.7039 288.364 78.8133 290.242 73.1767 296.168Z" fill="#E8E4E0"/>
<path d="M502.283 291.254C500.693 292.844 499.393 295.59 499.393 297.469C499.393 303.539 513.412 317.269 519.627 317.269C522.373 317.269 528.298 310.332 528.298 307.152C528.298 305.418 524.974 300.504 520.927 296.168C512.545 287.496 507.486 286.051 502.283 291.254Z" fill="#E8E4E0"/>
<path d="M454.155 464.4C450.397 468.447 451.12 474.084 456.034 479.576C458.491 482.322 460.37 485.212 460.37 485.935C460.37 486.658 458.491 489.115 456.034 491.427C450.831 496.341 450.397 502.411 454.588 506.603C458.78 510.794 463.405 510.216 469.909 504.579L475.545 499.665L481.037 504.579C487.252 510.36 491.877 510.794 496.213 506.169C500.693 501.4 500.115 497.353 494.478 491.138L489.564 485.646L494.478 480.009C499.826 473.795 500.549 469.892 497.08 464.978C493.611 459.92 486.529 460.642 480.604 466.857L475.69 471.916L470.487 466.857C464.561 461.076 458.057 460.064 454.155 464.4Z" fill="#E8E4E0"/>
</g>
<defs>
<filter id="filter0_ddi_140_25" x="0" y="-3.05176e-05" width="594" height="701.022" filterUnits="userSpaceOnUse" color-interpolation-filters="sRGB">
<feFlood flood-opacity="0" result="BackgroundImageFix"/>
<feColorMatrix in="SourceAlpha" type="matrix" values="0 0 0 0 0 0 0 0 0 0 0 0 0 0 0 0 0 0 127 0" result="hardAlpha"/>
<feMorphology radius="5" operator="erode" in="SourceAlpha" result="effect1_dropShadow_140_25"/>
<feOffset/>
<feGaussianBlur stdDeviation="26"/>
<feComposite in2="hardAlpha" operator="out"/>
<feColorMatrix type="matrix" values="0 0 0 0 0.921569 0 0 0 0 0.6 0 0 0 0 0.282353 0 0 0 1 0"/>
<feBlend mode="normal" in2="BackgroundImageFix" result="effect1_dropShadow_140_25"/>
<feColorMatrix in="SourceAlpha" type="matrix" values="0 0 0 0 0 0 0 0 0 0 0 0 0 0 0 0 0 0 127 0" result="hardAlpha"/>
<feMorphology radius="18" operator="erode" in="SourceAlpha" result="effect2_dropShadow_140_25"/>
<feOffset dy="-8"/>
<feGaussianBlur stdDeviation="11.55"/>
<feComposite in2="hardAlpha" operator="out"/>
<feColorMatrix type="matrix" values="0 0 0 0 0.93676 0 0 0 0 0.964867 0 0 0 0 0.121672 0 0 0 0.19 0"/>
<feBlend mode="normal" in2="effect1_dropShadow_140_25" result="effect2_dropShadow_140_25"/>
<feBlend mode="normal" in="SourceGraphic" in2="effect2_dropShadow_140_25" result="shape"/>
<feColorMatrix in="SourceAlpha" type="matrix" values="0 0 0 0 0 0 0 0 0 0 0 0 0 0 0 0 0 0 127 0" result="hardAlpha"/>
<feMorphology radius="2" operator="erode" in="SourceAlpha" result="effect3_innerShadow_140_25"/>
<feOffset/>
<feGaussianBlur stdDeviation="13.95"/>
<feComposite in2="hardAlpha" operator="arithmetic" k2="-1" k3="1"/>
<feColorMatrix type="matrix" values="0 0 0 0 0.921569 0 0 0 0 0.6 0 0 0 0 0.282353 0 0 0 0.32 0"/>
<feBlend mode="normal" in2="shape" result="effect3_innerShadow_140_25"/>
</filter>
</defs>
</svg>
