<svg width="594" height="595" viewBox="0 0 594 595" fill="none" xmlns="http://www.w3.org/2000/svg">
<g filter="url(#filter0_ddi_140_39)">
<path d="M50.1002 50.1657C48.0001 52.2659 47 54.1661 47 56.2662C47 58.5664 53.5005 70.6674 70.0018 99.0696C82.6028 120.871 93.2037 139.473 93.6037 140.373C94.0037 141.573 93.3037 142.773 91.4035 144.273C89.8034 145.473 85.403 149.474 81.6027 153.074C42.4996 190.277 35.8991 249.282 65.6015 295.385C74.0021 308.386 90.7035 323.787 105.005 331.888C117.006 338.589 137.507 344.989 147.208 345.089C150.308 345.089 151.108 345.489 151.508 347.289C151.808 348.589 151.908 368.691 151.808 391.993L151.508 434.296L146.008 435.996C127.406 441.897 113.705 454.998 107.805 472.599L105.105 480.6L78.5025 481.1L51.8004 481.6L49.4002 484.4C46.2999 488 46.2999 492.701 49.4002 496.601L51.8004 499.601L78.5025 500.101L105.205 500.601L106.905 506.102C115.805 534.904 145.308 552.306 173.91 545.605C193.612 540.905 211.313 523.903 216.013 504.802L217.214 500.101L333.723 500.301L450.132 500.601L451.832 505.602C460.133 530.004 485.735 544.005 510.537 537.604C519.137 535.304 525.738 531.404 532.639 524.503C551.24 505.802 551.84 477.3 534.039 457.798C527.938 451.098 521.638 446.897 513.037 444.097C507.537 442.197 504.936 441.997 495.936 442.297C485.035 442.797 479.934 444.397 469.033 451.198L465.433 453.398L429.63 426.296C409.929 411.294 392.727 398.793 391.427 398.493C383.927 396.593 377.226 404.194 380.126 411.294C380.926 413.195 392.327 422.495 417.629 441.697C437.631 456.798 454.032 469.299 454.032 469.399C453.932 469.499 453.132 472.099 452.032 475.099L450.132 480.6H333.923H217.614L214.913 472.799C211.313 462.698 207.313 456.598 199.412 449.197C192.812 442.997 181.711 436.796 174.81 435.596L171.01 434.896V390.193V345.489L177.91 344.289C199.412 340.589 221.014 329.688 237.115 314.387L242.716 309.086L279.018 336.588C311.121 360.99 315.721 364.091 318.922 364.091C325.822 364.091 330.222 358.29 328.122 351.79C327.122 348.989 321.222 344.089 291.019 321.187C271.218 306.286 255.017 293.685 255.017 293.385C255.017 292.985 257.217 288.185 260.017 282.684C271.018 260.382 274.318 231.88 268.618 208.578C267.417 203.778 267.317 202.378 268.318 201.678C269.018 201.278 308.321 185.676 355.524 167.075L441.531 133.272L443.931 136.373C451.832 146.573 463.133 154.474 475.034 158.174L480.534 159.874V227.58C480.534 286.784 480.334 295.485 479.034 296.185C478.234 296.585 475.034 298.085 471.934 299.586C464.933 302.886 457.033 310.786 453.532 317.987C443.331 338.389 452.032 363.291 473.034 373.391C481.434 377.392 493.735 378.292 502.136 375.592C517.837 370.391 528.138 358.59 531.038 342.289C534.139 324.687 523.738 305.886 506.736 298.585L500.036 295.585L500.236 227.68L500.536 159.674L506.036 158.074C514.937 155.374 521.638 151.474 528.738 144.673C537.039 136.773 541.639 129.372 544.739 118.871C550.44 98.9696 545.24 79.168 530.038 64.0668C514.937 48.8656 495.136 43.6652 475.234 49.3657C464.633 52.4659 457.333 57.0663 449.332 65.4669C438.331 77.0679 433.331 90.969 434.231 107.07C434.531 112.171 434.331 115.171 433.631 115.471C432.131 116.071 309.421 164.275 282.919 174.676C271.118 179.276 261.017 183.076 260.417 183.076C259.917 182.976 257.417 179.576 254.816 175.276C236.115 144.273 203.512 124.572 166.009 121.571C151.608 120.371 130.307 123.972 117.206 129.672L112.005 131.972L109.605 128.272C108.305 126.272 97.904 108.37 86.5031 88.5688C75.1022 68.7672 64.5014 51.3658 62.9013 49.7657C58.8009 45.9654 54.1006 46.0654 50.1002 50.1657ZM506.236 70.3673C513.637 73.9676 520.138 80.4681 523.738 87.8687C527.638 95.7694 528.238 107.97 525.038 116.371C522.138 123.972 517.637 129.772 511.037 134.272C496.136 144.473 477.334 142.573 464.433 129.672C454.832 119.971 451.232 107.67 454.432 95.0693C457.233 84.2684 463.933 75.7678 473.334 70.9674C479.934 67.5671 481.935 67.1671 491.535 67.3671C499.136 67.5671 501.436 67.9671 506.236 70.3673ZM184.311 144.473C205.313 150.674 224.014 164.075 236.015 181.576C240.815 188.477 246.616 201.478 249.216 211.078C252.416 222.879 252.416 244.681 249.116 256.582C240.215 289.585 214.913 314.687 181.411 323.687C170.81 326.588 146.308 326.388 135.607 323.287C103.604 314.087 80.7027 291.885 70.5019 260.082C68.2017 253.082 67.7016 249.182 67.2016 237.781C66.9016 229.28 67.2016 221.679 67.9017 217.779C75.2022 179.276 103.304 150.674 142.008 142.473C152.508 140.273 173.41 141.273 184.311 144.473ZM496.636 315.587C506.236 318.387 512.737 328.088 511.837 337.989C509.837 358.19 484.235 364.891 472.634 348.289C470.134 344.789 469.534 342.789 469.234 337.288C468.933 331.688 469.234 329.888 471.234 326.088C474.834 319.487 482.435 314.687 490.135 314.187C490.935 314.087 493.935 314.787 496.636 315.587ZM178.01 457.798C186.711 462.298 192.612 468.699 196.012 477.8C199.112 486 198.512 498.401 194.712 506.202C191.311 513.202 184.111 520.403 177.01 523.903C172.11 526.303 170.41 526.604 161.009 526.604C150.908 526.604 150.208 526.504 144.208 523.203C122.306 511.302 117.606 483.5 134.307 465.399C145.908 452.898 162.509 449.997 178.01 457.798ZM506.736 462.598C527.638 468.799 534.139 496.201 518.437 511.302C504.136 524.903 481.134 521.103 472.334 503.702C466.433 492.001 468.433 479.5 477.934 470.099C486.335 461.698 495.636 459.298 506.736 462.598Z" fill="#E8E4E0"/>
<path d="M152.008 161.175C134.607 164.575 121.106 181.176 121.006 199.178C121.006 203.778 120.906 203.778 117.405 204.378C112.805 205.178 108.005 208.378 104.904 212.879C102.604 216.279 102.504 217.179 102.204 236.681C101.904 258.982 102.704 264.583 108.005 275.084C119.505 297.785 145.408 310.686 169.509 305.786C190.811 301.386 206.412 287.585 214.313 266.083C216.013 261.482 216.413 257.382 216.813 241.581C217.013 229.18 216.813 221.079 216.113 218.379C214.213 211.179 208.113 205.678 200.512 204.078C197.612 203.478 197.512 203.378 196.912 195.877C195.412 178.376 183.411 164.775 166.209 161.175C160.209 159.974 158.409 159.974 152.008 161.175ZM166.309 181.476C173.01 184.176 178.61 193.577 177.81 200.578L177.51 203.578L159.309 203.878L141.007 204.078V199.078C141.007 193.777 143.307 187.877 146.708 184.876C151.608 180.376 160.209 178.876 166.309 181.476ZM197.012 239.381C197.012 258.382 196.012 262.983 190.111 271.183C171.51 297.185 130.606 289.585 122.506 258.582C121.006 252.582 120.306 225.18 121.706 223.78C122.006 223.379 139.107 223.079 159.709 223.079H197.012V239.381Z" fill="#E8E4E0"/>
<path d="M152.908 241.981C149.908 244.981 149.808 245.581 149.908 255.282C149.908 262.383 151.208 264.883 155.608 266.683C160.009 268.483 163.409 267.683 166.509 263.883C168.609 261.382 169.009 259.882 169.009 254.082C169.009 245.981 167.709 242.481 163.909 240.481C159.608 238.281 156.208 238.781 152.908 241.981Z" fill="#E8E4E0"/>
<path d="M350.524 371.991C346.824 373.591 344.523 377.092 344.523 381.292C344.523 384.592 345.123 385.792 347.824 388.192C349.824 389.993 352.124 391.093 354.024 391.093C355.924 391.093 358.225 389.993 360.225 388.192C362.925 385.792 363.525 384.592 363.525 381.192C363.525 374.491 356.424 369.491 350.524 371.991Z" fill="#E8E4E0"/>
</g>
<defs>
<filter id="filter0_ddi_140_39" x="0" y="0" width="594" height="594.038" filterUnits="userSpaceOnUse" color-interpolation-filters="sRGB">
<feFlood flood-opacity="0" result="BackgroundImageFix"/>
<feColorMatrix in="SourceAlpha" type="matrix" values="0 0 0 0 0 0 0 0 0 0 0 0 0 0 0 0 0 0 127 0" result="hardAlpha"/>
<feMorphology radius="5" operator="erode" in="SourceAlpha" result="effect1_dropShadow_140_39"/>
<feOffset/>
<feGaussianBlur stdDeviation="26"/>
<feComposite in2="hardAlpha" operator="out"/>
<feColorMatrix type="matrix" values="0 0 0 0 0.921569 0 0 0 0 0.6 0 0 0 0 0.282353 0 0 0 1 0"/>
<feBlend mode="normal" in2="BackgroundImageFix" result="effect1_dropShadow_140_39"/>
<feColorMatrix in="SourceAlpha" type="matrix" values="0 0 0 0 0 0 0 0 0 0 0 0 0 0 0 0 0 0 127 0" result="hardAlpha"/>
<feMorphology radius="18" operator="erode" in="SourceAlpha" result="effect2_dropShadow_140_39"/>
<feOffset dy="-8"/>
<feGaussianBlur stdDeviation="11.55"/>
<feComposite in2="hardAlpha" operator="out"/>
<feColorMatrix type="matrix" values="0 0 0 0 0.93676 0 0 0 0 0.964867 0 0 0 0 0.121672 0 0 0 0.19 0"/>
<feBlend mode="normal" in2="effect1_dropShadow_140_39" result="effect2_dropShadow_140_39"/>
<feBlend mode="normal" in="SourceGraphic" in2="effect2_dropShadow_140_39" result="shape"/>
<feColorMatrix in="SourceAlpha" type="matrix" values="0 0 0 0 0 0 0 0 0 0 0 0 0 0 0 0 0 0 127 0" result="hardAlpha"/>
<feMorphology radius="2" operator="erode" in="SourceAlpha" result="effect3_innerShadow_140_39"/>
<feOffset/>
<feGaussianBlur stdDeviation="13.95"/>
<feComposite in2="hardAlpha" operator="arithmetic" k2="-1" k3="1"/>
<feColorMatrix type="matrix" values="0 0 0 0 0.921569 0 0 0 0 0.6 0 0 0 0 0.282353 0 0 0 0.32 0"/>
<feBlend mode="normal" in2="shape" result="effect3_innerShadow_140_39"/>
</filter>
</defs>
</svg>
