<svg width="594" height="695" viewBox="0 0 594 695" fill="none" xmlns="http://www.w3.org/2000/svg">
<g filter="url(#filter0_ddi_140_44)">
<path d="M242.929 48.455C232.712 51.2196 225.26 55.6671 218.528 63.1196C213.841 68.2883 208.071 79.5873 208.071 83.554C208.071 84.2752 194.969 84.756 173.813 84.756H139.435L136.551 87.7611C133.666 90.5257 133.546 91.2469 133.546 106.392V122.019H92.6768C53.3707 122.019 51.6879 122.139 49.404 124.423C47 126.827 47 128.389 47 384.54V642.374L50.1253 644.778L53.3707 647.302H254.95H456.529L459.774 644.778C462.899 642.374 462.899 642.133 462.899 626.867V611.361L466.145 611.001C469.991 610.52 480.329 598.62 485.137 589.124C490.065 579.388 488.863 567.608 482.011 558.232C480.809 556.669 481.05 555.588 483.093 552.703C488.142 545.611 488.502 534.552 484.055 527.701C482.853 525.898 476.001 520.128 468.789 514.839C457.25 506.425 455.928 504.983 457.25 503.18C457.971 502.098 467.347 491.039 477.925 478.658C491.267 462.912 497.998 455.94 500.162 455.459C514.105 452.695 526.727 445.723 534.179 436.708C548.724 418.918 551.128 394.397 540.189 374.203C536.463 367.351 525.404 356.533 518.673 353.047C504.249 345.715 485.137 344.753 471.914 350.883C468.068 352.566 464.582 354.009 463.981 354.009C463.38 354.009 462.899 305.086 462.899 240.658C462.899 144.617 462.659 126.947 461.216 124.904C459.534 122.74 457.25 122.62 416.982 122.019L374.551 121.418L373.95 104.83C373.469 90.1651 373.108 88.0015 371.065 86.4388C369.142 85.1166 362.17 84.756 334.764 84.756H300.867L298.944 78.9863C291.13 56.1479 265.888 42.3247 242.929 48.455ZM263.244 65.0429C274.422 68.2883 282.957 78.5055 284.64 90.4055C285.12 93.8914 286.443 97.1368 288.125 98.8197C290.89 101.584 291.13 101.584 324.667 101.584H358.323L358.083 134.279L357.722 167.094L254.108 167.455L150.374 167.695V134.64V101.584H182.828C215.764 101.584 220.331 100.983 221.894 96.8964C222.375 95.8146 223.216 92.3287 223.817 89.0833C225.981 77.3035 233.794 68.1681 244.372 64.9227C251.344 62.759 255.671 62.759 263.244 65.0429ZM133.546 156.757C133.546 167.335 134.026 177.312 134.627 178.874C135.228 180.437 137.272 182.36 139.195 183.202C141.719 184.163 171.289 184.524 255.671 184.283C364.694 183.923 369.021 183.803 371.425 181.639C373.709 179.595 373.95 177.913 374.19 158.801L374.551 138.246H410.611H446.672L447.033 253.64L447.273 369.034L443.787 376.847C438.979 387.305 437.176 396.079 438.138 405.575L438.859 413.389L422.391 439.713C413.376 454.137 405.563 466.157 404.962 466.518C404.481 466.878 398.471 463.032 391.619 458.104C378.037 448.247 374.671 446.564 368.42 446.564C362.29 446.564 357.121 449.209 352.073 454.738L347.746 459.546L342.216 457.623C337.649 455.94 335.846 455.82 329.956 457.142C321.421 458.825 316.613 462.551 308.56 473.369C300.025 484.789 299.184 486.592 300.506 490.198C301.227 492.121 325.268 510.512 369.382 542.726C406.645 570.012 439.34 594.293 442.225 596.456L447.393 600.663L447.033 615.208L446.672 629.873H254.95H63.2273L62.8667 385.261C62.7465 250.755 62.8667 139.929 63.2273 139.087C63.5879 138.006 71.8818 137.645 98.6869 137.645H133.546V156.757ZM509.417 367.351C530.693 377.568 537.304 403.893 523.481 423.966C517.591 432.501 507.855 437.549 492.95 439.953C489.224 440.434 486.819 442.838 474.439 457.383C466.505 466.758 459.654 474.091 459.173 473.97C457.25 473.249 432.969 455.579 432.849 454.738C432.849 454.377 437.897 445.963 444.028 436.227L455.086 418.437V404.494C455.086 388.507 457.009 383.098 465.664 374.443C471.794 368.193 477.804 365.067 485.978 363.865C495.113 362.423 500.883 363.384 509.417 367.351ZM420.348 499.453C447.393 519.407 469.991 536.716 470.592 537.918C471.674 540.322 468.549 546.813 466.505 546.092C463.981 545.13 362.05 469.884 362.05 468.922C361.93 466.758 365.896 463.393 368.541 463.393C369.983 463.393 391.86 478.658 420.348 499.453ZM436.214 477.937C442.585 482.745 448.114 486.712 448.355 486.952C448.956 487.433 443.306 494.525 442.104 494.525C441.022 494.645 418.424 478.057 418.424 477.096C418.424 476.134 423.233 469.403 423.954 469.403C424.314 469.403 429.844 473.249 436.214 477.937ZM404.361 521.09C471.914 570.733 473.958 572.416 471.914 578.907C470.712 582.513 464.943 590.687 463.5 590.687C462.899 590.807 443.066 576.623 419.627 559.434C311.925 480.221 319.739 486.231 321.061 483.827C321.662 482.625 324.066 479.62 326.35 477.336C334.163 469.042 331.038 467.239 404.361 521.09Z" fill="#E8E4E0"/>
<path d="M140.878 200.27C113.952 205.559 96.1626 221.065 91.3545 243.543C88.4696 256.765 92.3161 275.276 100.49 287.417C102.653 290.903 106.019 297.874 107.702 303.043C109.505 308.212 112.871 315.544 115.395 319.27L119.963 326.002L113.712 328.045C100.85 332.132 91.2343 341.027 85.9454 353.768C83.301 360.259 83.0605 362.062 83.0605 388.387C83.0605 413.749 83.301 416.273 85.2242 418.076C87.2676 419.879 93.8787 420.12 156.143 420.12H224.779L227.183 416.995C229.587 413.99 229.707 412.187 229.707 390.19C229.707 363.625 228.385 356.052 222.375 346.556C216.124 336.82 204.825 328.886 194.488 326.963C192.084 326.482 190.04 325.761 190.04 325.401C190.04 325.04 191.363 323.117 192.925 321.073C197.012 315.664 200.378 308.693 202.662 300.519C203.984 296.312 206.749 291.023 209.633 287.417C224.298 268.906 225.139 246.668 212.037 226.955C203.623 214.334 189.199 204.598 173.092 200.751C164.798 198.828 149.412 198.587 140.878 200.27ZM179.463 220.344C195.329 228.157 204.825 241.5 204.945 256.284C205.066 265.42 203.503 267.583 200.258 262.655C195.45 255.563 186.915 252.558 165.399 250.755C147.849 249.193 141.479 247.029 133.666 240.418C130.18 237.413 126.093 235.009 124.53 235.009C121.044 235.009 113.712 242.942 109.986 251.116L106.981 257.246L107.582 249.914C108.183 241.139 111.308 234.528 117.799 228.638C128.257 219.142 139.435 215.656 158.187 216.137C170.447 216.377 172.01 216.618 179.463 220.344ZM132.343 259.65C140.517 263.737 149.653 266.021 162.154 266.862C177.9 268.064 184.872 269.627 187.035 272.632C191.002 278.402 188.358 297.033 181.987 307.971C178.261 314.462 169.486 322.155 163.957 324.078C152.778 327.684 138.354 322.636 130.42 312.299C123.689 303.404 121.044 294.869 121.165 281.887C121.165 271.67 123.929 256.645 125.852 256.645C126.093 256.645 129.098 257.967 132.343 259.65ZM136.31 342.83C136.55 343.431 136.31 348.119 135.709 353.408C135.108 358.697 134.988 364.106 135.228 365.428C136.07 368.914 149.773 387.305 152.658 388.867C157.466 391.392 160.831 389.108 169.005 377.568L176.938 366.63L176.217 354.249L175.376 341.989H181.987C194.969 341.989 204.705 347.638 209.754 357.975C212.879 364.226 212.879 364.947 212.638 384.179L212.278 403.893H155.783H99.2878L98.9272 387.064C98.4464 363.985 99.6484 358.937 107.582 351.004C111.669 346.917 115.395 344.272 118.52 343.551C124.17 341.989 135.589 341.628 136.31 342.83ZM159.269 348.239C160.471 358.456 160.11 361.942 157.826 364.827L155.663 367.471L153.619 364.346C151.936 361.822 151.696 359.658 152.297 353.047C153.138 342.71 153.499 341.989 156.143 341.989C158.067 341.989 158.547 343.191 159.269 348.239Z" fill="#E8E4E0"/>
<path d="M252.665 240.538C249.54 244.504 249.54 245.947 252.665 249.914L255.189 253.039L334.523 252.798L413.976 252.438L416.26 249.313C418.785 245.947 418.424 242.461 415.299 239.216C413.736 237.653 403.158 237.413 334.282 237.413H255.069L252.665 240.538Z" fill="#E8E4E0"/>
<path d="M253.627 275.637C250.382 278.402 250.021 284.652 253.026 287.657C254.829 289.58 261.32 289.701 334.403 289.701H413.856L416.14 286.816C419.266 283.089 419.025 279.964 415.419 276.478L412.534 273.473H334.523C260.358 273.473 256.271 273.593 253.627 275.637Z" fill="#E8E4E0"/>
<path d="M256.032 310.856C250.142 313.02 249.06 320.833 254.109 324.92C255.431 326.002 274.183 326.362 334.885 326.122L413.978 325.761L416.382 322.516C419.747 318.068 418.425 313.501 413.016 311.217C409.53 309.774 396.428 309.534 334.043 309.654C289.689 309.654 257.835 310.135 256.032 310.856Z" fill="#E8E4E0"/>
<path d="M254.588 348.119C249.059 351.364 249.901 359.899 256.031 362.423C258.195 363.264 282.716 363.625 336.446 363.384L413.856 363.024L416.14 360.139C419.025 356.533 419.025 353.888 415.9 349.922L413.496 346.797H335.124C282.596 346.917 256.031 347.277 254.588 348.119Z" fill="#E8E4E0"/>
<path d="M255.43 384.3C249.78 387.064 249.42 395.478 254.829 398.363C256.392 399.325 282.355 399.685 334.884 399.685H412.534L415.419 396.68C419.025 393.195 419.265 390.069 416.14 386.343L413.856 383.458L335.845 383.218C283.677 383.098 257.113 383.458 255.43 384.3Z" fill="#E8E4E0"/>
<path d="M150.975 444.881C137.633 448.127 126.694 454.498 115.395 465.797C103.976 477.096 97.966 487.313 94.36 501.857C91.8357 511.834 91.8357 529.023 94.36 539.12C99.6489 560.275 115.516 579.989 134.748 589.485C157.947 600.784 181.386 600.784 204.465 589.485C219.01 582.272 232.232 569.05 239.083 554.746C241.728 549.097 244.613 541.524 245.454 537.918C247.738 528.783 247.377 510.151 244.853 500.775C237.28 472.889 215.163 451.372 187.276 444.761C177.9 442.598 160.471 442.598 150.975 444.881ZM186.435 461.83C207.59 467.6 225.14 486.111 229.587 507.627C237.521 545.611 208.672 581.311 170.328 581.191C152.297 581.07 139.195 575.902 127.055 564.002C108.183 545.37 103.375 517.844 114.794 494.044C127.776 466.878 156.985 453.776 186.435 461.83Z" fill="#E8E4E0"/>
<path d="M194.728 491.279C193.646 492.121 185.833 501.136 177.539 511.113C169.245 521.21 161.913 529.504 161.432 529.383C160.951 529.383 157.105 525.056 152.778 519.767C144.363 509.55 140.998 507.627 136.07 510.392C133.786 511.714 132.824 513.276 132.584 516.402C132.223 520.368 133.305 522.051 144.484 535.394C156.864 549.938 160.23 552.462 164.798 550.419C167.683 549.097 206.388 502.699 207.47 499.213C209.393 493.443 199.656 487.313 194.728 491.279Z" fill="#E8E4E0"/>
</g>
<defs>
<filter id="filter0_ddi_140_44" x="0" y="3.05176e-05" width="594" height="694.302" filterUnits="userSpaceOnUse" color-interpolation-filters="sRGB">
<feFlood flood-opacity="0" result="BackgroundImageFix"/>
<feColorMatrix in="SourceAlpha" type="matrix" values="0 0 0 0 0 0 0 0 0 0 0 0 0 0 0 0 0 0 127 0" result="hardAlpha"/>
<feMorphology radius="5" operator="erode" in="SourceAlpha" result="effect1_dropShadow_140_44"/>
<feOffset/>
<feGaussianBlur stdDeviation="26"/>
<feComposite in2="hardAlpha" operator="out"/>
<feColorMatrix type="matrix" values="0 0 0 0 0.921569 0 0 0 0 0.6 0 0 0 0 0.282353 0 0 0 1 0"/>
<feBlend mode="normal" in2="BackgroundImageFix" result="effect1_dropShadow_140_44"/>
<feColorMatrix in="SourceAlpha" type="matrix" values="0 0 0 0 0 0 0 0 0 0 0 0 0 0 0 0 0 0 127 0" result="hardAlpha"/>
<feMorphology radius="18" operator="erode" in="SourceAlpha" result="effect2_dropShadow_140_44"/>
<feOffset dy="-8"/>
<feGaussianBlur stdDeviation="11.55"/>
<feComposite in2="hardAlpha" operator="out"/>
<feColorMatrix type="matrix" values="0 0 0 0 0.93676 0 0 0 0 0.964867 0 0 0 0 0.121672 0 0 0 0.19 0"/>
<feBlend mode="normal" in2="effect1_dropShadow_140_44" result="effect2_dropShadow_140_44"/>
<feBlend mode="normal" in="SourceGraphic" in2="effect2_dropShadow_140_44" result="shape"/>
<feColorMatrix in="SourceAlpha" type="matrix" values="0 0 0 0 0 0 0 0 0 0 0 0 0 0 0 0 0 0 127 0" result="hardAlpha"/>
<feMorphology radius="2" operator="erode" in="SourceAlpha" result="effect3_innerShadow_140_44"/>
<feOffset/>
<feGaussianBlur stdDeviation="13.95"/>
<feComposite in2="hardAlpha" operator="arithmetic" k2="-1" k3="1"/>
<feColorMatrix type="matrix" values="0 0 0 0 0.921569 0 0 0 0 0.6 0 0 0 0 0.282353 0 0 0 0.32 0"/>
<feBlend mode="normal" in2="shape" result="effect3_innerShadow_140_44"/>
</filter>
</defs>
</svg>
