<svg width="71" height="71" viewBox="0 0 71 71" fill="none" xmlns="http://www.w3.org/2000/svg">
<path d="M35.0273 17.0586C25.0898 17.0586 17.0742 25.0742 17.0742 35.0117C17.0742 44.9492 25.0898 52.9648 35.0273 52.9648C44.9648 52.9648 52.9805 44.9492 52.9805 35.0117C52.9805 25.0742 44.9648 17.0586 35.0273 17.0586ZM35.0273 46.6836C28.6055 46.6836 23.3555 41.4492 23.3555 35.0117C23.3555 28.5742 28.5898 23.3398 35.0273 23.3398C41.4648 23.3398 46.6992 28.5742 46.6992 35.0117C46.6992 41.4492 41.4492 46.6836 35.0273 46.6836ZM57.9023 16.3242C57.9023 18.6523 56.0273 20.5117 53.7148 20.5117C51.3867 20.5117 49.5273 18.6367 49.5273 16.3242C49.5273 14.0117 51.4023 12.1367 53.7148 12.1367C56.0273 12.1367 57.9023 14.0117 57.9023 16.3242ZM69.793 20.5742C69.5273 14.9648 68.2461 9.99609 64.1367 5.90234C60.043 1.80859 55.0742 0.527344 49.4648 0.246094C43.6836 -0.0820312 26.3555 -0.0820312 20.5742 0.246094C14.9805 0.511719 10.0117 1.79297 5.90234 5.88672C1.79297 9.98047 0.527344 14.9492 0.246094 20.5586C-0.0820312 26.3398 -0.0820312 43.668 0.246094 49.4492C0.511719 55.0586 1.79297 60.0273 5.90234 64.1211C10.0117 68.2148 14.9648 69.4961 20.5742 69.7773C26.3555 70.1055 43.6836 70.1055 49.4648 69.7773C55.0742 69.5117 60.043 68.2305 64.1367 64.1211C68.2305 60.0273 69.5117 55.0586 69.793 49.4492C70.1211 43.668 70.1211 26.3555 69.793 20.5742ZM62.3242 55.6523C61.1055 58.7148 58.7461 61.0742 55.668 62.3086C51.0586 64.1367 40.1211 63.7148 35.0273 63.7148C29.9336 63.7148 18.9805 64.1211 14.3867 62.3086C11.3242 61.0898 8.96484 58.7305 7.73047 55.6523C5.90234 51.043 6.32422 40.1055 6.32422 35.0117C6.32422 29.918 5.91797 18.9648 7.73047 14.3711C8.94922 11.3086 11.3086 8.94922 14.3867 7.71484C18.9961 5.88672 29.9336 6.30859 35.0273 6.30859C40.1211 6.30859 51.0742 5.90234 55.668 7.71484C58.7305 8.93359 61.0898 11.293 62.3242 14.3711C64.1523 18.9805 63.7305 29.918 63.7305 35.0117C63.7305 40.1055 64.1523 51.0586 62.3242 55.6523Z" fill="#FF7919"/>
</svg>
