<svg width="48" height="77" viewBox="0 0 48 77" fill="none" xmlns="http://www.w3.org/2000/svg">
<path d="M6.85714 59.5H41.1429V17.5H6.85714V59.5ZM6.85714 77C4.97143 77 3.35771 76.3152 2.016 74.9455C0.671999 73.5735 0 71.925 0 70V7C0 5.075 0.671999 3.4265 2.016 2.0545C3.35771 0.684833 4.97143 0 6.85714 0H41.1429C43.0286 0 44.6434 0.684833 45.9874 2.0545C47.3291 3.4265 48 5.075 48 7V70C48 71.925 47.3291 73.5735 45.9874 74.9455C44.6434 76.3152 43.0286 77 41.1429 77H6.85714Z" fill="#FF7919"/>
</svg>
